<?xml version="1.0" encoding="UTF-8" standalone="no"?>
<!-- Created with Inkscape (http://www.inkscape.org/) -->

<svg
   xmlns:dc="http://purl.org/dc/elements/1.1/"
   xmlns:cc="http://creativecommons.org/ns#"
   xmlns:rdf="http://www.w3.org/1999/02/22-rdf-syntax-ns#"
   xmlns:svg="http://www.w3.org/2000/svg"
   xmlns="http://www.w3.org/2000/svg"
   xmlns:sodipodi="http://sodipodi.sourceforge.net/DTD/sodipodi-0.dtd"
   xmlns:inkscape="http://www.inkscape.org/namespaces/inkscape"
   width="211.21173mm"
   height="33.659943mm"
   viewBox="0 0 211.21173 33.659943"
   version="1.1"
   id="svg8"
   inkscape:version="0.92.4 (5da689c313, 2019-01-14)"
   sodipodi:docname="EasyLoader Workflow_FontPaths.svg">
  <defs
     id="defs2">
    <marker
       inkscape:stockid="TriangleOutS"
       orient="auto"
       refY="0"
       refX="0"
       id="TriangleOutS"
       style="overflow:visible"
       inkscape:isstock="true">
      <path
         id="path1268"
         d="M 5.77,0 -2.88,5 V -5 Z"
         style="fill:#f3f3f3;fill-opacity:1;fill-rule:evenodd;stroke:#f3f3f3;stroke-width:1.00000003pt;stroke-opacity:1"
         transform="scale(0.2)"
         inkscape:connector-curvature="0" />
    </marker>
    <marker
       inkscape:stockid="Arrow2Send"
       orient="auto"
       refY="0"
       refX="0"
       id="Arrow2Send"
       style="overflow:visible"
       inkscape:isstock="true">
      <path
         id="path1153"
         style="fill:#f3f3f3;fill-opacity:1;fill-rule:evenodd;stroke:#f3f3f3;stroke-width:0.625;stroke-linejoin:round;stroke-opacity:1"
         d="M 8.7185878,4.0337352 -2.2072895,0.01601326 8.7185884,-4.0017078 c -1.7454984,2.3720609 -1.7354408,5.6174519 -6e-7,8.035443 z"
         transform="matrix(-0.3,0,0,-0.3,0.69,0)"
         inkscape:connector-curvature="0" />
    </marker>
    <marker
       inkscape:stockid="TriangleOutS"
       orient="auto"
       refY="0"
       refX="0"
       id="TriangleOutS-7"
       style="overflow:visible"
       inkscape:isstock="true">
      <path
         inkscape:connector-curvature="0"
         id="path1268-7"
         d="M 5.77,0 -2.88,5 V -5 Z"
         style="fill:#f3f3f3;fill-opacity:1;fill-rule:evenodd;stroke:#f3f3f3;stroke-width:1.00000003pt;stroke-opacity:1"
         transform="scale(0.2)" />
    </marker>
    <marker
       inkscape:stockid="TriangleOutS"
       orient="auto"
       refY="0"
       refX="0"
       id="TriangleOutS-7-5"
       style="overflow:visible"
       inkscape:isstock="true">
      <path
         inkscape:connector-curvature="0"
         id="path1268-7-2"
         d="M 5.77,0 -2.88,5 V -5 Z"
         style="fill:#f3f3f3;fill-opacity:1;fill-rule:evenodd;stroke:#f3f3f3;stroke-width:1.00000003pt;stroke-opacity:1"
         transform="scale(0.2)" />
    </marker>
    <marker
       inkscape:stockid="TriangleOutS"
       orient="auto"
       refY="0"
       refX="0"
       id="TriangleOutS-7-0"
       style="overflow:visible"
       inkscape:isstock="true">
      <path
         inkscape:connector-curvature="0"
         id="path1268-7-21"
         d="M 5.77,0 -2.88,5 V -5 Z"
         style="fill:#f3f3f3;fill-opacity:1;fill-rule:evenodd;stroke:#f3f3f3;stroke-width:1.00000003pt;stroke-opacity:1"
         transform="scale(0.2)" />
    </marker>
  </defs>
  <sodipodi:namedview
     id="base"
     pagecolor="#ffffff"
     bordercolor="#666666"
     borderopacity="1.0"
     inkscape:pageopacity="0.0"
     inkscape:pageshadow="2"
     inkscape:zoom="3.959798"
     inkscape:cx="632.62815"
     inkscape:cy="38.229254"
     inkscape:document-units="mm"
     inkscape:current-layer="layer1"
     showgrid="false"
     showguides="false"
     inkscape:window-width="1920"
     inkscape:window-height="1027"
     inkscape:window-x="-8"
     inkscape:window-y="-8"
     inkscape:window-maximized="1" />
  <metadata
     id="metadata5">
    <rdf:RDF>
      <cc:Work
         rdf:about="">
        <dc:format>image/svg+xml</dc:format>
        <dc:type
           rdf:resource="http://purl.org/dc/dcmitype/StillImage" />
        <dc:title></dc:title>
      </cc:Work>
    </rdf:RDF>
  </metadata>
  <g
     inkscape:label="Ebene 1"
     inkscape:groupmode="layer"
     id="layer1"
     transform="translate(-11.416838,-203.99821)">
    <rect
       style="opacity:1;fill:#141414;fill-opacity:1;stroke:#f0f0f0;stroke-width:0.96499997;stroke-linecap:butt;stroke-linejoin:round;stroke-miterlimit:4;stroke-dasharray:none;stroke-dashoffset:0;stroke-opacity:1;paint-order:markers fill stroke"
       id="rect817"
       width="33.828869"
       height="16.630953"
       x="11.899338"
       y="212.51271"
       rx="2" />
    <g
       aria-label="CONNECT
"
       style="font-style:normal;font-variant:normal;font-weight:normal;font-stretch:normal;font-size:10.58333302px;line-height:1.25;font-family:Barlow;-inkscape-font-specification:Barlow;text-align:center;letter-spacing:0px;word-spacing:0px;text-anchor:middle;fill:#000000;fill-opacity:1;stroke:none;stroke-width:0.26458332"
       id="text821">
      <path
         d="m 19.770011,220.2723 q -0.51435,0 -0.83185,-0.31115 -0.31115,-0.3175 -0.31115,-0.8382 v -2.25425 q 0,-0.5207 0.31115,-0.83185 0.3175,-0.31115 0.83185,-0.31115 0.5207,0 0.83185,0.31115 0.3175,0.31115 0.3175,0.83185 v 0.1016 q 0,0.0635 -0.0635,0.0635 l -0.4826,0.0254 q -0.0635,0 -0.0635,-0.0635 v -0.1651 q 0,-0.26035 -0.1524,-0.4191 -0.14605,-0.15875 -0.38735,-0.15875 -0.2413,0 -0.38735,0.15875 -0.14605,0.15875 -0.14605,0.4191 v 2.3368 q 0,0.26035 0.14605,0.4191 0.14605,0.15875 0.38735,0.15875 0.2413,0 0.38735,-0.15875 0.1524,-0.15875 0.1524,-0.4191 v -0.1651 q 0,-0.0635 0.0635,-0.0635 l 0.4826,0.0254 q 0.0635,0 0.0635,0.0635 v 0.0952 q 0,0.5207 -0.3175,0.8382 -0.31115,0.31115 -0.83185,0.31115 z"
         style="font-style:normal;font-variant:normal;font-weight:500;font-stretch:condensed;font-size:6.3499999px;line-height:0;font-family:'Barlow Condensed';-inkscape-font-specification:'Barlow Condensed, Medium Condensed';text-align:center;text-anchor:middle;fill:#f0f0f0;fill-opacity:1;stroke-width:0.26458332"
         id="path2949" />
      <path
         d="m 22.647652,220.2723 q -0.5207,0 -0.8382,-0.3175 -0.3175,-0.3175 -0.3175,-0.84455 v -2.21615 q 0,-0.52705 0.3175,-0.84455 0.3175,-0.32385 0.8382,-0.32385 0.52705,0 0.84455,0.32385 0.32385,0.3175 0.32385,0.84455 v 2.21615 q 0,0.52705 -0.32385,0.84455 -0.3175,0.3175 -0.84455,0.3175 z m 0,-0.52705 q 0.254,0 0.4064,-0.1651 0.1524,-0.17145 0.1524,-0.4445 v -2.2733 q 0,-0.27305 -0.1524,-0.43815 -0.1524,-0.17145 -0.4064,-0.17145 -0.24765,0 -0.40005,0.17145 -0.14605,0.1651 -0.14605,0.43815 v 2.2733 q 0,0.27305 0.14605,0.4445 0.1524,0.1651 0.40005,0.1651 z"
         style="font-style:normal;font-variant:normal;font-weight:500;font-stretch:condensed;font-size:6.3499999px;line-height:0;font-family:'Barlow Condensed';-inkscape-font-specification:'Barlow Condensed, Medium Condensed';text-align:center;text-anchor:middle;fill:#f0f0f0;fill-opacity:1;stroke-width:0.26458332"
         id="path2951" />
      <path
         d="m 26.310907,215.84 q 0,-0.0635 0.0635,-0.0635 h 0.47625 q 0.0635,0 0.0635,0.0635 v 4.318 q 0,0.0635 -0.0635,0.0635 h -0.5461 q -0.0508,0 -0.06985,-0.0508 l -1.0795,-2.90195 q -0.0064,-0.0127 -0.01905,-0.006 -0.0127,0 -0.0127,0.0127 l 0.0064,2.8829 q 0,0.0635 -0.0635,0.0635 h -0.4826 q -0.0635,0 -0.0635,-0.0635 v -4.318 q 0,-0.0635 0.0635,-0.0635 h 0.53975 q 0.0508,0 0.06985,0.0508 l 1.08585,2.90195 q 0.0063,0.019 0.01905,0.019 0.0127,-0.006 0.0127,-0.0254 z"
         style="font-style:normal;font-variant:normal;font-weight:500;font-stretch:condensed;font-size:6.3499999px;line-height:0;font-family:'Barlow Condensed';-inkscape-font-specification:'Barlow Condensed, Medium Condensed';text-align:center;text-anchor:middle;fill:#f0f0f0;fill-opacity:1;stroke-width:0.26458332"
         id="path2953" />
      <path
         d="m 29.49831,215.84 q 0,-0.0635 0.0635,-0.0635 h 0.47625 q 0.0635,0 0.0635,0.0635 v 4.318 q 0,0.0635 -0.0635,0.0635 h -0.5461 q -0.0508,0 -0.06985,-0.0508 l -1.0795,-2.90195 q -0.0064,-0.0127 -0.01905,-0.006 -0.0127,0 -0.0127,0.0127 l 0.0063,2.8829 q 0,0.0635 -0.0635,0.0635 h -0.4826 q -0.0635,0 -0.0635,-0.0635 v -4.318 q 0,-0.0635 0.0635,-0.0635 h 0.53975 q 0.0508,0 0.06985,0.0508 l 1.08585,2.90195 q 0.0063,0.019 0.01905,0.019 0.0127,-0.006 0.0127,-0.0254 z"
         style="font-style:normal;font-variant:normal;font-weight:500;font-stretch:condensed;font-size:6.3499999px;line-height:0;font-family:'Barlow Condensed';-inkscape-font-specification:'Barlow Condensed, Medium Condensed';text-align:center;text-anchor:middle;fill:#f0f0f0;fill-opacity:1;stroke-width:0.26458332"
         id="path2955" />
      <path
         d="m 33.022262,216.24005 q 0,0.0635 -0.0635,0.0635 h -1.42875 q -0.0254,0 -0.0254,0.0254 v 1.37795 q 0,0.0254 0.0254,0.0254 h 0.8763 q 0.0635,0 0.0635,0.0635 v 0.40005 q 0,0.0635 -0.0635,0.0635 h -0.8763 q -0.0254,0 -0.0254,0.0254 v 1.3843 q 0,0.0254 0.0254,0.0254 h 1.42875 q 0.0635,0 0.0635,0.0635 v 0.40005 q 0,0.0635 -0.0635,0.0635 h -2.00025 q -0.0635,0 -0.0635,-0.0635 v -4.318 q 0,-0.0635 0.0635,-0.0635 h 2.00025 q 0.0635,0 0.0635,0.0635 z"
         style="font-style:normal;font-variant:normal;font-weight:500;font-stretch:condensed;font-size:6.3499999px;line-height:0;font-family:'Barlow Condensed';-inkscape-font-specification:'Barlow Condensed, Medium Condensed';text-align:center;text-anchor:middle;fill:#f0f0f0;fill-opacity:1;stroke-width:0.26458332"
         id="path2957" />
      <path
         d="m 34.69003,220.2723 q -0.51435,0 -0.83185,-0.31115 -0.31115,-0.3175 -0.31115,-0.8382 v -2.25425 q 0,-0.5207 0.31115,-0.83185 0.3175,-0.31115 0.83185,-0.31115 0.5207,0 0.83185,0.31115 0.3175,0.31115 0.3175,0.83185 v 0.1016 q 0,0.0635 -0.0635,0.0635 l -0.4826,0.0254 q -0.0635,0 -0.0635,-0.0635 v -0.1651 q 0,-0.26035 -0.1524,-0.4191 -0.14605,-0.15875 -0.38735,-0.15875 -0.2413,0 -0.38735,0.15875 -0.14605,0.15875 -0.14605,0.4191 v 2.3368 q 0,0.26035 0.14605,0.4191 0.14605,0.15875 0.38735,0.15875 0.2413,0 0.38735,-0.15875 0.1524,-0.15875 0.1524,-0.4191 v -0.1651 q 0,-0.0635 0.0635,-0.0635 l 0.4826,0.0254 q 0.0635,0 0.0635,0.0635 v 0.0952 q 0,0.5207 -0.3175,0.8382 -0.31115,0.31115 -0.83185,0.31115 z"
         style="font-style:normal;font-variant:normal;font-weight:500;font-stretch:condensed;font-size:6.3499999px;line-height:0;font-family:'Barlow Condensed';-inkscape-font-specification:'Barlow Condensed, Medium Condensed';text-align:center;text-anchor:middle;fill:#f0f0f0;fill-opacity:1;stroke-width:0.26458332"
         id="path2959" />
      <path
         d="m 38.640821,215.7765 q 0.0635,0 0.0635,0.0635 v 0.40005 q 0,0.0635 -0.0635,0.0635 h -0.83185 q -0.0254,0 -0.0254,0.0254 v 3.82905 q 0,0.0635 -0.0635,0.0635 h -0.4826 q -0.0635,0 -0.0635,-0.0635 v -3.82905 q 0,-0.0254 -0.0254,-0.0254 h -0.7874 q -0.0635,0 -0.0635,-0.0635 V 215.84 q 0,-0.0635 0.0635,-0.0635 z"
         style="font-style:normal;font-variant:normal;font-weight:500;font-stretch:condensed;font-size:6.3499999px;line-height:0;font-family:'Barlow Condensed';-inkscape-font-specification:'Barlow Condensed, Medium Condensed';text-align:center;text-anchor:middle;fill:#f0f0f0;fill-opacity:1;stroke-width:0.26458332"
         id="path2961" />
    </g>
    <g
       aria-label="DEVICE
"
       style="font-style:normal;font-variant:normal;font-weight:normal;font-stretch:normal;font-size:10.58333302px;line-height:1.25;font-family:Barlow;-inkscape-font-specification:Barlow;text-align:center;letter-spacing:0px;word-spacing:0px;text-anchor:middle;fill:#000000;fill-opacity:1;stroke:none;stroke-width:0.26458332"
       id="text821-9">
      <path
         d="m 21.241127,226.07449 q -0.0635,0 -0.0635,-0.0635 v -4.318 q 0,-0.0635 0.0635,-0.0635 h 1.0414 q 0.52705,0 0.8382,0.32385 0.31115,0.32385 0.31115,0.8763 v 2.0447 q 0,0.55245 -0.31115,0.8763 -0.31115,0.32385 -0.8382,0.32385 z m 0.5461,-0.55245 q 0,0.0254 0.0254,0.0254 l 0.46355,-0.006 q 0.2413,0 0.38735,-0.18415 0.14605,-0.1905 0.1524,-0.51435 v -1.9812 q 0,-0.32385 -0.14605,-0.51435 -0.14605,-0.1905 -0.3937,-0.1905 h -0.46355 q -0.0254,0 -0.0254,0.0254 z"
         style="font-style:normal;font-variant:normal;font-weight:500;font-stretch:condensed;font-size:6.3499999px;line-height:0;font-family:'Barlow Condensed';-inkscape-font-specification:'Barlow Condensed, Medium Condensed';text-align:center;text-anchor:middle;fill:#f0f0f0;fill-opacity:1;stroke-width:0.26458332"
         id="path2936" />
      <path
         d="m 26.244233,222.09304 q 0,0.0635 -0.0635,0.0635 h -1.42875 q -0.0254,0 -0.0254,0.0254 v 1.37795 q 0,0.0254 0.0254,0.0254 h 0.8763 q 0.0635,0 0.0635,0.0635 v 0.40005 q 0,0.0635 -0.0635,0.0635 h -0.8763 q -0.0254,0 -0.0254,0.0254 v 1.3843 q 0,0.0254 0.0254,0.0254 h 1.42875 q 0.0635,0 0.0635,0.0635 v 0.40005 q 0,0.0635 -0.0635,0.0635 h -2.00025 q -0.0635,0 -0.0635,-0.0635 v -4.318 q 0,-0.0635 0.0635,-0.0635 h 2.00025 q 0.0635,0 0.0635,0.0635 z"
         style="font-style:normal;font-variant:normal;font-weight:500;font-stretch:condensed;font-size:6.3499999px;line-height:0;font-family:'Barlow Condensed';-inkscape-font-specification:'Barlow Condensed, Medium Condensed';text-align:center;text-anchor:middle;fill:#f0f0f0;fill-opacity:1;stroke-width:0.26458332"
         id="path2938" />
      <path
         d="m 27.6453,226.07449 q -0.05715,0 -0.06985,-0.0572 l -0.9144,-4.318 v -0.0127 q 0,-0.0572 0.05715,-0.0572 h 0.52705 q 0.0635,0 0.06985,0.0572 l 0.60325,3.29565 q 0.0064,0.0127 0.0127,0.0127 0.0064,0 0.0127,-0.0127 l 0.59055,-3.29565 q 0.0127,-0.0572 0.06985,-0.0572 h 0.508 q 0.06985,0 0.05715,0.0699 l -0.9144,4.318 q -0.0063,0.0572 -0.06985,0.0572 z"
         style="font-style:normal;font-variant:normal;font-weight:500;font-stretch:condensed;font-size:6.3499999px;line-height:0;font-family:'Barlow Condensed';-inkscape-font-specification:'Barlow Condensed, Medium Condensed';text-align:center;text-anchor:middle;fill:#f0f0f0;fill-opacity:1;stroke-width:0.26458332"
         id="path2940" />
      <path
         d="m 29.82355,226.07449 q -0.0635,0 -0.0635,-0.0635 v -4.318 q 0,-0.0635 0.0635,-0.0635 h 0.4826 q 0.0635,0 0.0635,0.0635 v 4.318 q 0,0.0635 -0.0635,0.0635 z"
         style="font-style:normal;font-variant:normal;font-weight:500;font-stretch:condensed;font-size:6.3499999px;line-height:0;font-family:'Barlow Condensed';-inkscape-font-specification:'Barlow Condensed, Medium Condensed';text-align:center;text-anchor:middle;fill:#f0f0f0;fill-opacity:1;stroke-width:0.26458332"
         id="path2942" />
      <path
         d="m 32.215614,226.12529 q -0.51435,0 -0.83185,-0.31115 -0.31115,-0.3175 -0.31115,-0.8382 v -2.25425 q 0,-0.5207 0.31115,-0.83185 0.3175,-0.31115 0.83185,-0.31115 0.5207,0 0.83185,0.31115 0.3175,0.31115 0.3175,0.83185 v 0.1016 q 0,0.0635 -0.0635,0.0635 l -0.4826,0.0254 q -0.0635,0 -0.0635,-0.0635 v -0.1651 q 0,-0.26035 -0.1524,-0.4191 -0.14605,-0.15875 -0.38735,-0.15875 -0.2413,0 -0.38735,0.15875 -0.14605,0.15875 -0.14605,0.4191 v 2.3368 q 0,0.26035 0.14605,0.4191 0.14605,0.15875 0.38735,0.15875 0.2413,0 0.38735,-0.15875 0.1524,-0.15875 0.1524,-0.4191 v -0.1651 q 0,-0.0635 0.0635,-0.0635 l 0.4826,0.0254 q 0.0635,0 0.0635,0.0635 v 0.0953 q 0,0.5207 -0.3175,0.8382 -0.31115,0.31115 -0.83185,0.31115 z"
         style="font-style:normal;font-variant:normal;font-weight:500;font-stretch:condensed;font-size:6.3499999px;line-height:0;font-family:'Barlow Condensed';-inkscape-font-specification:'Barlow Condensed, Medium Condensed';text-align:center;text-anchor:middle;fill:#f0f0f0;fill-opacity:1;stroke-width:0.26458332"
         id="path2944" />
      <path
         d="m 36.153706,222.09304 q 0,0.0635 -0.0635,0.0635 h -1.42875 q -0.0254,0 -0.0254,0.0254 v 1.37795 q 0,0.0254 0.0254,0.0254 h 0.8763 q 0.0635,0 0.0635,0.0635 v 0.40005 q 0,0.0635 -0.0635,0.0635 h -0.8763 q -0.0254,0 -0.0254,0.0254 v 1.3843 q 0,0.0254 0.0254,0.0254 h 1.42875 q 0.0635,0 0.0635,0.0635 v 0.40005 q 0,0.0635 -0.0635,0.0635 h -2.00025 q -0.0635,0 -0.0635,-0.0635 v -4.318 q 0,-0.0635 0.0635,-0.0635 h 2.00025 q 0.0635,0 0.0635,0.0635 z"
         style="font-style:normal;font-variant:normal;font-weight:500;font-stretch:condensed;font-size:6.3499999px;line-height:0;font-family:'Barlow Condensed';-inkscape-font-specification:'Barlow Condensed, Medium Condensed';text-align:center;text-anchor:middle;fill:#f0f0f0;fill-opacity:1;stroke-width:0.26458332"
         id="path2946" />
    </g>
    <rect
       style="opacity:1;fill:#141414;fill-opacity:1;stroke:#f0f0f0;stroke-width:0.96499997;stroke-linecap:butt;stroke-linejoin:round;stroke-miterlimit:4;stroke-dasharray:none;stroke-dashoffset:0;stroke-opacity:1;paint-order:markers fill stroke"
       id="rect817-4"
       width="33.828869"
       height="16.630953"
       x="114.56507"
       y="212.51271"
       rx="2" />
    <g
       aria-label="UPLOAD
"
       style="font-style:normal;font-variant:normal;font-weight:normal;font-stretch:normal;font-size:10.58333302px;line-height:1.25;font-family:Barlow;-inkscape-font-specification:Barlow;text-align:center;letter-spacing:0px;word-spacing:0px;text-anchor:middle;fill:#000000;fill-opacity:1;stroke:none;stroke-width:0.26458332"
       id="text821-97">
      <path
         d="m 124.27277,220.2723 q -0.5207,0 -0.8382,-0.3429 -0.31115,-0.34925 -0.31115,-0.9144 v -3.175 q 0,-0.0635 0.0635,-0.0635 h 0.4826 q 0.0635,0 0.0635,0.0635 v 3.2385 q 0,0.29845 0.14605,0.4826 0.1524,0.18415 0.3937,0.18415 0.24765,0 0.3937,-0.18415 0.1524,-0.18415 0.1524,-0.4826 V 215.84 q 0,-0.0635 0.0635,-0.0635 h 0.4826 q 0.0635,0 0.0635,0.0635 v 3.175 q 0,0.56515 -0.3175,0.9144 -0.3175,0.3429 -0.8382,0.3429 z"
         style="font-style:normal;font-variant:normal;font-weight:500;font-stretch:condensed;font-size:6.3499999px;line-height:0;font-family:'Barlow Condensed';-inkscape-font-specification:'Barlow Condensed, Medium Condensed';text-align:center;text-anchor:middle;fill:#f0f0f0;fill-opacity:1;stroke-width:0.26458332"
         id="path2811" />
      <path
         d="m 127.30073,215.77015 q 0.48895,0 0.7874,0.3556 0.3048,0.34925 0.3048,0.92075 0,0.5588 -0.2921,0.9017 -0.2921,0.3429 -0.76835,0.3429 h -0.5969 q -0.0254,0 -0.0254,0.0254 v 1.8415 q 0,0.0635 -0.0635,0.0635 h -0.4826 q -0.0635,0 -0.0635,-0.0635 v -4.32435 q 0,-0.0635 0.0635,-0.0635 z m -0.0953,2.032 q 0.26035,0 0.4191,-0.19685 0.15875,-0.2032 0.15875,-0.5461 0,-0.34925 -0.15875,-0.55245 -0.15875,-0.20955 -0.4191,-0.20955 h -0.4699 q -0.0254,0 -0.0254,0.0254 v 1.45415 q 0,0.0254 0.0254,0.0254 z"
         style="font-style:normal;font-variant:normal;font-weight:500;font-stretch:condensed;font-size:6.3499999px;line-height:0;font-family:'Barlow Condensed';-inkscape-font-specification:'Barlow Condensed, Medium Condensed';text-align:center;text-anchor:middle;fill:#f0f0f0;fill-opacity:1;stroke-width:0.26458332"
         id="path2813" />
      <path
         d="m 129.03537,220.2215 q -0.0635,0 -0.0635,-0.0635 v -4.318 q 0,-0.0635 0.0635,-0.0635 h 0.4826 q 0.0635,0 0.0635,0.0635 v 3.82905 q 0,0.0254 0.0254,0.0254 h 1.4224 q 0.0635,0 0.0635,0.0635 v 0.40005 q 0,0.0635 -0.0635,0.0635 z"
         style="font-style:normal;font-variant:normal;font-weight:500;font-stretch:condensed;font-size:6.3499999px;line-height:0;font-family:'Barlow Condensed';-inkscape-font-specification:'Barlow Condensed, Medium Condensed';text-align:center;text-anchor:middle;fill:#f0f0f0;fill-opacity:1;stroke-width:0.26458332"
         id="path2815" />
      <path
         d="m 132.60596,220.2723 q -0.5207,0 -0.8382,-0.3175 -0.3175,-0.3175 -0.3175,-0.84455 v -2.21615 q 0,-0.52705 0.3175,-0.84455 0.3175,-0.32385 0.8382,-0.32385 0.52705,0 0.84455,0.32385 0.32385,0.3175 0.32385,0.84455 v 2.21615 q 0,0.52705 -0.32385,0.84455 -0.3175,0.3175 -0.84455,0.3175 z m 0,-0.52705 q 0.254,0 0.4064,-0.1651 0.1524,-0.17145 0.1524,-0.4445 v -2.2733 q 0,-0.27305 -0.1524,-0.43815 -0.1524,-0.17145 -0.4064,-0.17145 -0.24765,0 -0.40005,0.17145 -0.14605,0.1651 -0.14605,0.43815 v 2.2733 q 0,0.27305 0.14605,0.4445 0.1524,0.1651 0.40005,0.1651 z"
         style="font-style:normal;font-variant:normal;font-weight:500;font-stretch:condensed;font-size:6.3499999px;line-height:0;font-family:'Barlow Condensed';-inkscape-font-specification:'Barlow Condensed, Medium Condensed';text-align:center;text-anchor:middle;fill:#f0f0f0;fill-opacity:1;stroke-width:0.26458332"
         id="path2817" />
      <path
         d="m 136.1812,220.2215 q -0.0571,0 -0.0699,-0.0571 l -0.1397,-0.73025 q 0,-0.0127 -0.0127,-0.019 -0.006,-0.006 -0.019,-0.006 h -1.03505 q -0.0127,0 -0.0254,0.006 -0.006,0.006 -0.006,0.019 l -0.13335,0.73025 q -0.006,0.0571 -0.0698,0.0571 h -0.4826 q -0.0317,0 -0.0508,-0.019 -0.0127,-0.019 -0.006,-0.0508 l 0.94615,-4.318 q 0.0127,-0.0572 0.0699,-0.0572 h 0.56515 q 0.0635,0 0.0699,0.0572 l 0.9525,4.318 v 0.0127 q 0,0.0571 -0.0572,0.0571 z m -1.20015,-1.3208 q 0,0.0254 0.019,0.0254 h 0.84455 q 0.019,0 0.019,-0.0254 l -0.4318,-2.25425 q -0.006,-0.0127 -0.0127,-0.0127 -0.006,0 -0.0127,0.0127 z"
         style="font-style:normal;font-variant:normal;font-weight:500;font-stretch:condensed;font-size:6.3499999px;line-height:0;font-family:'Barlow Condensed';-inkscape-font-specification:'Barlow Condensed, Medium Condensed';text-align:center;text-anchor:middle;fill:#f0f0f0;fill-opacity:1;stroke-width:0.26458332"
         id="path2819" />
      <path
         d="m 137.27053,220.2215 q -0.0635,0 -0.0635,-0.0635 v -4.318 q 0,-0.0635 0.0635,-0.0635 h 1.0414 q 0.52705,0 0.8382,0.32385 0.31115,0.32385 0.31115,0.8763 v 2.0447 q 0,0.55245 -0.31115,0.8763 -0.31115,0.32385 -0.8382,0.32385 z m 0.5461,-0.55245 q 0,0.0254 0.0254,0.0254 l 0.46355,-0.006 q 0.2413,0 0.38735,-0.18415 0.14605,-0.1905 0.1524,-0.51435 v -1.9812 q 0,-0.32385 -0.14605,-0.51435 -0.14605,-0.1905 -0.3937,-0.1905 h -0.46355 q -0.0254,0 -0.0254,0.0254 z"
         style="font-style:normal;font-variant:normal;font-weight:500;font-stretch:condensed;font-size:6.3499999px;line-height:0;font-family:'Barlow Condensed';-inkscape-font-specification:'Barlow Condensed, Medium Condensed';text-align:center;text-anchor:middle;fill:#f0f0f0;fill-opacity:1;stroke-width:0.26458332"
         id="path2821" />
    </g>
    <g
       aria-label="REGISTERS
"
       style="font-style:normal;font-variant:normal;font-weight:normal;font-stretch:normal;font-size:10.58333302px;line-height:1.25;font-family:Barlow;-inkscape-font-specification:Barlow;text-align:center;letter-spacing:0px;word-spacing:0px;text-anchor:middle;fill:#000000;fill-opacity:1;stroke:none;stroke-width:0.26458332"
       id="text821-9-63">
      <path
         d="m 121.5531,226.07449 q -0.0572,0 -0.0762,-0.0508 l -0.5842,-1.8923 q -0.006,-0.0191 -0.0254,-0.0191 h -0.4445 q -0.0254,0 -0.0254,0.0254 v 1.87325 q 0,0.0635 -0.0635,0.0635 h -0.4826 q -0.0635,0 -0.0635,-0.0635 v -4.318 q 0,-0.0635 0.0635,-0.0635 h 1.13665 q 0.32385,0 0.5715,0.15875 0.24765,0.15875 0.381,0.45085 0.1397,0.28575 0.1397,0.65405 0,0.40005 -0.1651,0.6985 -0.1651,0.2921 -0.45085,0.42545 -0.0191,0.019 -0.0127,0.0381 l 0.6477,1.94945 0.006,0.0254 q 0,0.0444 -0.0571,0.0444 z m -1.1303,-3.91795 q -0.0254,0 -0.0254,0.0254 v 1.4224 q 0,0.0254 0.0254,0.0254 h 0.4699 q 0.26035,0 0.4191,-0.19685 0.15875,-0.2032 0.15875,-0.5334 0,-0.3429 -0.15875,-0.53975 -0.15875,-0.2032 -0.4191,-0.2032 z"
         style="font-style:normal;font-variant:normal;font-weight:500;font-stretch:condensed;font-size:6.3499999px;line-height:0;font-family:'Barlow Condensed';-inkscape-font-specification:'Barlow Condensed, Medium Condensed';text-align:center;text-anchor:middle;fill:#f0f0f0;fill-opacity:1;stroke-width:0.26458332"
         id="path2824" />
      <path
         d="m 124.79239,222.09304 q 0,0.0635 -0.0635,0.0635 h -1.42875 q -0.0254,0 -0.0254,0.0254 v 1.37795 q 0,0.0254 0.0254,0.0254 h 0.8763 q 0.0635,0 0.0635,0.0635 v 0.40005 q 0,0.0635 -0.0635,0.0635 h -0.8763 q -0.0254,0 -0.0254,0.0254 v 1.3843 q 0,0.0254 0.0254,0.0254 h 1.42875 q 0.0635,0 0.0635,0.0635 v 0.40005 q 0,0.0635 -0.0635,0.0635 h -2.00025 q -0.0635,0 -0.0635,-0.0635 v -4.318 q 0,-0.0635 0.0635,-0.0635 h 2.00025 q 0.0635,0 0.0635,0.0635 z"
         style="font-style:normal;font-variant:normal;font-weight:500;font-stretch:condensed;font-size:6.3499999px;line-height:0;font-family:'Barlow Condensed';-inkscape-font-specification:'Barlow Condensed, Medium Condensed';text-align:center;text-anchor:middle;fill:#f0f0f0;fill-opacity:1;stroke-width:0.26458332"
         id="path2826" />
      <path
         d="m 126.46016,226.12529 q -0.51435,0 -0.83185,-0.3048 -0.31115,-0.3048 -0.31115,-0.80645 v -2.3241 q 0,-0.50165 0.31115,-0.80645 0.3175,-0.3048 0.83185,-0.3048 0.51435,0 0.83185,0.3048 0.3175,0.3048 0.3175,0.8128 v 0.2667 q 0,0.0635 -0.0635,0.0635 h -0.4826 q -0.0635,0 -0.0635,-0.0635 v -0.2794 q 0,-0.26035 -0.1524,-0.4191 -0.14605,-0.15875 -0.38735,-0.15875 -0.2413,0 -0.3937,0.15875 -0.14605,0.15875 -0.14605,0.4191 v 2.3368 q 0,0.26035 0.14605,0.4191 0.1524,0.15875 0.3937,0.15875 0.2413,0 0.38735,-0.15875 0.1524,-0.15875 0.1524,-0.4191 v -0.6985 q 0,-0.0254 -0.0254,-0.0254 h -0.4826 q -0.0635,0 -0.0635,-0.0635 v -0.3937 q 0,-0.0635 0.0635,-0.0635 h 1.0541 q 0.0635,0 0.0635,0.0635 v 1.17475 q 0,0.50165 -0.3175,0.80645 -0.3175,0.3048 -0.83185,0.3048 z"
         style="font-style:normal;font-variant:normal;font-weight:500;font-stretch:condensed;font-size:6.3499999px;line-height:0;font-family:'Barlow Condensed';-inkscape-font-specification:'Barlow Condensed, Medium Condensed';text-align:center;text-anchor:middle;fill:#f0f0f0;fill-opacity:1;stroke-width:0.26458332"
         id="path2828" />
      <path
         d="m 128.37171,226.07449 q -0.0635,0 -0.0635,-0.0635 v -4.318 q 0,-0.0635 0.0635,-0.0635 h 0.4826 q 0.0635,0 0.0635,0.0635 v 4.318 q 0,0.0635 -0.0635,0.0635 z"
         style="font-style:normal;font-variant:normal;font-weight:500;font-stretch:condensed;font-size:6.3499999px;line-height:0;font-family:'Barlow Condensed';-inkscape-font-specification:'Barlow Condensed, Medium Condensed';text-align:center;text-anchor:middle;fill:#f0f0f0;fill-opacity:1;stroke-width:0.26458332"
         id="path2830" />
      <path
         d="m 130.67487,226.12529 q -0.50165,0 -0.8128,-0.31115 -0.3048,-0.3175 -0.3048,-0.8255 v -0.1651 q 0,-0.0635 0.0635,-0.0635 h 0.4699 q 0.0635,0 0.0635,0.0635 v 0.13335 q 0,0.2921 0.14605,0.4699 0.14605,0.17145 0.37465,0.17145 0.2286,0 0.37465,-0.1651 0.1524,-0.17145 0.1524,-0.4445 0,-0.18415 -0.0825,-0.32385 -0.0762,-0.1397 -0.20955,-0.24765 -0.127,-0.1143 -0.4191,-0.3302 -0.32385,-0.2413 -0.508,-0.41275 -0.18415,-0.17145 -0.31115,-0.41275 -0.127,-0.2413 -0.127,-0.56515 0,-0.51435 0.3048,-0.8128 0.3048,-0.3048 0.79375,-0.3048 0.508,0 0.8128,0.32385 0.31115,0.32385 0.31115,0.8509 v 0.15875 q 0,0.0635 -0.0635,0.0635 h -0.4699 q -0.0635,0 -0.0635,-0.0635 v -0.17145 q 0,-0.28575 -0.14605,-0.4572 -0.14605,-0.1778 -0.381,-0.1778 -0.22225,0 -0.36195,0.15875 -0.1397,0.1524 -0.1397,0.4318 0,0.254 0.1397,0.4318 0.1397,0.17145 0.53975,0.46355 0.381,0.28575 0.5715,0.46355 0.19685,0.1778 0.29845,0.3937 0.10795,0.20955 0.10795,0.50165 0,0.5334 -0.31115,0.85725 -0.31115,0.3175 -0.8128,0.3175 z"
         style="font-style:normal;font-variant:normal;font-weight:500;font-stretch:condensed;font-size:6.3499999px;line-height:0;font-family:'Barlow Condensed';-inkscape-font-specification:'Barlow Condensed, Medium Condensed';text-align:center;text-anchor:middle;fill:#f0f0f0;fill-opacity:1;stroke-width:0.26458332"
         id="path2832" />
      <path
         d="m 134.47892,221.62949 q 0.0635,0 0.0635,0.0635 v 0.40005 q 0,0.0635 -0.0635,0.0635 h -0.83185 q -0.0254,0 -0.0254,0.0254 v 3.82905 q 0,0.0635 -0.0635,0.0635 h -0.4826 q -0.0635,0 -0.0635,-0.0635 v -3.82905 q 0,-0.0254 -0.0254,-0.0254 h -0.7874 q -0.0635,0 -0.0635,-0.0635 v -0.40005 q 0,-0.0635 0.0635,-0.0635 z"
         style="font-style:normal;font-variant:normal;font-weight:500;font-stretch:condensed;font-size:6.3499999px;line-height:0;font-family:'Barlow Condensed';-inkscape-font-specification:'Barlow Condensed, Medium Condensed';text-align:center;text-anchor:middle;fill:#f0f0f0;fill-opacity:1;stroke-width:0.26458332"
         id="path2834" />
      <path
         d="m 137.25675,222.09304 q 0,0.0635 -0.0635,0.0635 h -1.42875 q -0.0254,0 -0.0254,0.0254 v 1.37795 q 0,0.0254 0.0254,0.0254 h 0.8763 q 0.0635,0 0.0635,0.0635 v 0.40005 q 0,0.0635 -0.0635,0.0635 h -0.8763 q -0.0254,0 -0.0254,0.0254 v 1.3843 q 0,0.0254 0.0254,0.0254 h 1.42875 q 0.0635,0 0.0635,0.0635 v 0.40005 q 0,0.0635 -0.0635,0.0635 H 135.193 q -0.0635,0 -0.0635,-0.0635 v -4.318 q 0,-0.0635 0.0635,-0.0635 h 2.00025 q 0.0635,0 0.0635,0.0635 z"
         style="font-style:normal;font-variant:normal;font-weight:500;font-stretch:condensed;font-size:6.3499999px;line-height:0;font-family:'Barlow Condensed';-inkscape-font-specification:'Barlow Condensed, Medium Condensed';text-align:center;text-anchor:middle;fill:#f0f0f0;fill-opacity:1;stroke-width:0.26458332"
         id="path2836" />
      <path
         d="m 139.63571,226.07449 q -0.0571,0 -0.0762,-0.0508 l -0.5842,-1.8923 q -0.006,-0.0191 -0.0254,-0.0191 h -0.4445 q -0.0254,0 -0.0254,0.0254 v 1.87325 q 0,0.0635 -0.0635,0.0635 h -0.4826 q -0.0635,0 -0.0635,-0.0635 v -4.318 q 0,-0.0635 0.0635,-0.0635 h 1.13665 q 0.32385,0 0.5715,0.15875 0.24765,0.15875 0.381,0.45085 0.1397,0.28575 0.1397,0.65405 0,0.40005 -0.1651,0.6985 -0.1651,0.2921 -0.45085,0.42545 -0.019,0.019 -0.0127,0.0381 l 0.6477,1.94945 0.006,0.0254 q 0,0.0444 -0.0572,0.0444 z m -1.1303,-3.91795 q -0.0254,0 -0.0254,0.0254 v 1.4224 q 0,0.0254 0.0254,0.0254 h 0.4699 q 0.26035,0 0.4191,-0.19685 0.15875,-0.2032 0.15875,-0.5334 0,-0.3429 -0.15875,-0.53975 -0.15875,-0.2032 -0.4191,-0.2032 z"
         style="font-style:normal;font-variant:normal;font-weight:500;font-stretch:condensed;font-size:6.3499999px;line-height:0;font-family:'Barlow Condensed';-inkscape-font-specification:'Barlow Condensed, Medium Condensed';text-align:center;text-anchor:middle;fill:#f0f0f0;fill-opacity:1;stroke-width:0.26458332"
         id="path2838" />
      <path
         d="m 141.75017,226.12529 q -0.50165,0 -0.8128,-0.31115 -0.3048,-0.3175 -0.3048,-0.8255 v -0.1651 q 0,-0.0635 0.0635,-0.0635 h 0.4699 q 0.0635,0 0.0635,0.0635 v 0.13335 q 0,0.2921 0.14605,0.4699 0.14605,0.17145 0.37465,0.17145 0.2286,0 0.37465,-0.1651 0.1524,-0.17145 0.1524,-0.4445 0,-0.18415 -0.0825,-0.32385 -0.0762,-0.1397 -0.20955,-0.24765 -0.127,-0.1143 -0.4191,-0.3302 -0.32385,-0.2413 -0.508,-0.41275 -0.18415,-0.17145 -0.31115,-0.41275 -0.127,-0.2413 -0.127,-0.56515 0,-0.51435 0.3048,-0.8128 0.3048,-0.3048 0.79375,-0.3048 0.508,0 0.8128,0.32385 0.31115,0.32385 0.31115,0.8509 v 0.15875 q 0,0.0635 -0.0635,0.0635 h -0.4699 q -0.0635,0 -0.0635,-0.0635 v -0.17145 q 0,-0.28575 -0.14605,-0.4572 -0.14605,-0.1778 -0.381,-0.1778 -0.22225,0 -0.36195,0.15875 -0.1397,0.1524 -0.1397,0.4318 0,0.254 0.1397,0.4318 0.1397,0.17145 0.53975,0.46355 0.381,0.28575 0.5715,0.46355 0.19685,0.1778 0.29845,0.3937 0.10795,0.20955 0.10795,0.50165 0,0.5334 -0.31115,0.85725 -0.31115,0.3175 -0.8128,0.3175 z"
         style="font-style:normal;font-variant:normal;font-weight:500;font-stretch:condensed;font-size:6.3499999px;line-height:0;font-family:'Barlow Condensed';-inkscape-font-specification:'Barlow Condensed, Medium Condensed';text-align:center;text-anchor:middle;fill:#f0f0f0;fill-opacity:1;stroke-width:0.26458332"
         id="path2840" />
    </g>
    <rect
       style="opacity:1;fill:#141414;fill-opacity:1;stroke:#f0f0f0;stroke-width:0.96499997;stroke-linecap:butt;stroke-linejoin:round;stroke-miterlimit:4;stroke-dasharray:none;stroke-dashoffset:0;stroke-opacity:1;paint-order:markers fill stroke"
       id="rect817-45"
       width="33.828869"
       height="16.630953"
       x="165.89792"
       y="212.51271"
       rx="2" />
    <g
       aria-label="DISCONNECT
"
       style="font-style:normal;font-variant:normal;font-weight:normal;font-stretch:normal;font-size:10.58333302px;line-height:1.25;font-family:Barlow;-inkscape-font-specification:Barlow;text-align:center;letter-spacing:0px;word-spacing:0px;text-anchor:middle;fill:#000000;fill-opacity:1;stroke:none;stroke-width:0.26458332"
       id="text821-93">
      <path
         d="m 169.23712,220.2215 q -0.0635,0 -0.0635,-0.0635 v -4.318 q 0,-0.0635 0.0635,-0.0635 h 1.0414 q 0.52705,0 0.8382,0.32385 0.31115,0.32385 0.31115,0.8763 v 2.0447 q 0,0.55245 -0.31115,0.8763 -0.31115,0.32385 -0.8382,0.32385 z m 0.5461,-0.55245 q 0,0.0254 0.0254,0.0254 l 0.46355,-0.006 q 0.2413,0 0.38735,-0.18415 0.14605,-0.1905 0.1524,-0.51435 v -1.9812 q 0,-0.32385 -0.14605,-0.51435 -0.14605,-0.1905 -0.3937,-0.1905 h -0.46355 q -0.0254,0 -0.0254,0.0254 z"
         style="font-style:normal;font-variant:normal;font-weight:500;font-stretch:condensed;font-size:6.3499999px;line-height:0;font-family:'Barlow Condensed';-inkscape-font-specification:'Barlow Condensed, Medium Condensed';text-align:center;text-anchor:middle;fill:#f0f0f0;fill-opacity:1;stroke-width:0.26458332"
         id="path2790" />
      <path
         d="m 172.21369,220.2215 q -0.0635,0 -0.0635,-0.0635 v -4.318 q 0,-0.0635 0.0635,-0.0635 h 0.4826 q 0.0635,0 0.0635,0.0635 v 4.318 q 0,0.0635 -0.0635,0.0635 z"
         style="font-style:normal;font-variant:normal;font-weight:500;font-stretch:condensed;font-size:6.3499999px;line-height:0;font-family:'Barlow Condensed';-inkscape-font-specification:'Barlow Condensed, Medium Condensed';text-align:center;text-anchor:middle;fill:#f0f0f0;fill-opacity:1;stroke-width:0.26458332"
         id="path2792" />
      <path
         d="m 174.51685,220.2723 q -0.50165,0 -0.8128,-0.31115 -0.3048,-0.3175 -0.3048,-0.8255 v -0.1651 q 0,-0.0635 0.0635,-0.0635 h 0.4699 q 0.0635,0 0.0635,0.0635 v 0.13335 q 0,0.2921 0.14605,0.4699 0.14605,0.17145 0.37465,0.17145 0.2286,0 0.37465,-0.1651 0.1524,-0.17145 0.1524,-0.4445 0,-0.18415 -0.0825,-0.32385 -0.0762,-0.1397 -0.20955,-0.24765 -0.127,-0.1143 -0.4191,-0.3302 -0.32385,-0.2413 -0.508,-0.41275 -0.18415,-0.17145 -0.31115,-0.41275 -0.127,-0.2413 -0.127,-0.56515 0,-0.51435 0.3048,-0.8128 0.3048,-0.3048 0.79375,-0.3048 0.508,0 0.8128,0.32385 0.31115,0.32385 0.31115,0.8509 v 0.15875 q 0,0.0635 -0.0635,0.0635 h -0.4699 q -0.0635,0 -0.0635,-0.0635 v -0.17145 q 0,-0.28575 -0.14605,-0.4572 -0.14605,-0.1778 -0.381,-0.1778 -0.22225,0 -0.36195,0.15875 -0.1397,0.1524 -0.1397,0.4318 0,0.254 0.1397,0.4318 0.1397,0.17145 0.53975,0.46355 0.381,0.28575 0.5715,0.46355 0.19685,0.1778 0.29845,0.3937 0.10795,0.20955 0.10795,0.50165 0,0.5334 -0.31115,0.85725 -0.31115,0.3175 -0.8128,0.3175 z"
         style="font-style:normal;font-variant:normal;font-weight:500;font-stretch:condensed;font-size:6.3499999px;line-height:0;font-family:'Barlow Condensed';-inkscape-font-specification:'Barlow Condensed, Medium Condensed';text-align:center;text-anchor:middle;fill:#f0f0f0;fill-opacity:1;stroke-width:0.26458332"
         id="path2794" />
      <path
         d="m 177.30946,220.2723 q -0.51435,0 -0.83185,-0.31115 -0.31115,-0.3175 -0.31115,-0.8382 v -2.25425 q 0,-0.5207 0.31115,-0.83185 0.3175,-0.31115 0.83185,-0.31115 0.5207,0 0.83185,0.31115 0.3175,0.31115 0.3175,0.83185 v 0.1016 q 0,0.0635 -0.0635,0.0635 l -0.4826,0.0254 q -0.0635,0 -0.0635,-0.0635 v -0.1651 q 0,-0.26035 -0.1524,-0.4191 -0.14605,-0.15875 -0.38735,-0.15875 -0.2413,0 -0.38735,0.15875 -0.14605,0.15875 -0.14605,0.4191 v 2.3368 q 0,0.26035 0.14605,0.4191 0.14605,0.15875 0.38735,0.15875 0.2413,0 0.38735,-0.15875 0.1524,-0.15875 0.1524,-0.4191 v -0.1651 q 0,-0.0635 0.0635,-0.0635 l 0.4826,0.0254 q 0.0635,0 0.0635,0.0635 v 0.0952 q 0,0.5207 -0.3175,0.8382 -0.31115,0.31115 -0.83185,0.31115 z"
         style="font-style:normal;font-variant:normal;font-weight:500;font-stretch:condensed;font-size:6.3499999px;line-height:0;font-family:'Barlow Condensed';-inkscape-font-specification:'Barlow Condensed, Medium Condensed';text-align:center;text-anchor:middle;fill:#f0f0f0;fill-opacity:1;stroke-width:0.26458332"
         id="path2796" />
      <path
         d="m 180.1871,220.2723 q -0.5207,0 -0.8382,-0.3175 -0.3175,-0.3175 -0.3175,-0.84455 v -2.21615 q 0,-0.52705 0.3175,-0.84455 0.3175,-0.32385 0.8382,-0.32385 0.52705,0 0.84455,0.32385 0.32385,0.3175 0.32385,0.84455 v 2.21615 q 0,0.52705 -0.32385,0.84455 -0.3175,0.3175 -0.84455,0.3175 z m 0,-0.52705 q 0.254,0 0.4064,-0.1651 0.1524,-0.17145 0.1524,-0.4445 v -2.2733 q 0,-0.27305 -0.1524,-0.43815 -0.1524,-0.17145 -0.4064,-0.17145 -0.24765,0 -0.40005,0.17145 -0.14605,0.1651 -0.14605,0.43815 v 2.2733 q 0,0.27305 0.14605,0.4445 0.1524,0.1651 0.40005,0.1651 z"
         style="font-style:normal;font-variant:normal;font-weight:500;font-stretch:condensed;font-size:6.3499999px;line-height:0;font-family:'Barlow Condensed';-inkscape-font-specification:'Barlow Condensed, Medium Condensed';text-align:center;text-anchor:middle;fill:#f0f0f0;fill-opacity:1;stroke-width:0.26458332"
         id="path2798" />
      <path
         d="m 183.85036,215.84 q 0,-0.0635 0.0635,-0.0635 h 0.47625 q 0.0635,0 0.0635,0.0635 v 4.318 q 0,0.0635 -0.0635,0.0635 h -0.5461 q -0.0508,0 -0.0699,-0.0508 l -1.0795,-2.90195 q -0.006,-0.0127 -0.019,-0.006 -0.0127,0 -0.0127,0.0127 l 0.006,2.8829 q 0,0.0635 -0.0635,0.0635 h -0.4826 q -0.0635,0 -0.0635,-0.0635 v -4.318 q 0,-0.0635 0.0635,-0.0635 h 0.53975 q 0.0508,0 0.0699,0.0508 l 1.08585,2.90195 q 0.006,0.019 0.019,0.019 0.0127,-0.006 0.0127,-0.0254 z"
         style="font-style:normal;font-variant:normal;font-weight:500;font-stretch:condensed;font-size:6.3499999px;line-height:0;font-family:'Barlow Condensed';-inkscape-font-specification:'Barlow Condensed, Medium Condensed';text-align:center;text-anchor:middle;fill:#f0f0f0;fill-opacity:1;stroke-width:0.26458332"
         id="path2800" />
      <path
         d="m 187.03776,215.84 q 0,-0.0635 0.0635,-0.0635 h 0.47625 q 0.0635,0 0.0635,0.0635 v 4.318 q 0,0.0635 -0.0635,0.0635 h -0.5461 q -0.0508,0 -0.0699,-0.0508 l -1.0795,-2.90195 q -0.006,-0.0127 -0.019,-0.006 -0.0127,0 -0.0127,0.0127 l 0.006,2.8829 q 0,0.0635 -0.0635,0.0635 h -0.4826 q -0.0635,0 -0.0635,-0.0635 v -4.318 q 0,-0.0635 0.0635,-0.0635 h 0.53975 q 0.0508,0 0.0699,0.0508 l 1.08585,2.90195 q 0.006,0.019 0.019,0.019 0.0127,-0.006 0.0127,-0.0254 z"
         style="font-style:normal;font-variant:normal;font-weight:500;font-stretch:condensed;font-size:6.3499999px;line-height:0;font-family:'Barlow Condensed';-inkscape-font-specification:'Barlow Condensed, Medium Condensed';text-align:center;text-anchor:middle;fill:#f0f0f0;fill-opacity:1;stroke-width:0.26458332"
         id="path2802" />
      <path
         d="m 190.56171,216.24005 q 0,0.0635 -0.0635,0.0635 h -1.42875 q -0.0254,0 -0.0254,0.0254 v 1.37795 q 0,0.0254 0.0254,0.0254 h 0.8763 q 0.0635,0 0.0635,0.0635 v 0.40005 q 0,0.0635 -0.0635,0.0635 h -0.8763 q -0.0254,0 -0.0254,0.0254 v 1.3843 q 0,0.0254 0.0254,0.0254 h 1.42875 q 0.0635,0 0.0635,0.0635 v 0.40005 q 0,0.0635 -0.0635,0.0635 h -2.00025 q -0.0635,0 -0.0635,-0.0635 v -4.318 q 0,-0.0635 0.0635,-0.0635 h 2.00025 q 0.0635,0 0.0635,0.0635 z"
         style="font-style:normal;font-variant:normal;font-weight:500;font-stretch:condensed;font-size:6.3499999px;line-height:0;font-family:'Barlow Condensed';-inkscape-font-specification:'Barlow Condensed, Medium Condensed';text-align:center;text-anchor:middle;fill:#f0f0f0;fill-opacity:1;stroke-width:0.26458332"
         id="path2804" />
      <path
         d="m 192.22948,220.2723 q -0.51435,0 -0.83185,-0.31115 -0.31115,-0.3175 -0.31115,-0.8382 v -2.25425 q 0,-0.5207 0.31115,-0.83185 0.3175,-0.31115 0.83185,-0.31115 0.5207,0 0.83185,0.31115 0.3175,0.31115 0.3175,0.83185 v 0.1016 q 0,0.0635 -0.0635,0.0635 l -0.4826,0.0254 q -0.0635,0 -0.0635,-0.0635 v -0.1651 q 0,-0.26035 -0.1524,-0.4191 -0.14605,-0.15875 -0.38735,-0.15875 -0.2413,0 -0.38735,0.15875 -0.14605,0.15875 -0.14605,0.4191 v 2.3368 q 0,0.26035 0.14605,0.4191 0.14605,0.15875 0.38735,0.15875 0.2413,0 0.38735,-0.15875 0.1524,-0.15875 0.1524,-0.4191 v -0.1651 q 0,-0.0635 0.0635,-0.0635 l 0.4826,0.0254 q 0.0635,0 0.0635,0.0635 v 0.0952 q 0,0.5207 -0.3175,0.8382 -0.31115,0.31115 -0.83185,0.31115 z"
         style="font-style:normal;font-variant:normal;font-weight:500;font-stretch:condensed;font-size:6.3499999px;line-height:0;font-family:'Barlow Condensed';-inkscape-font-specification:'Barlow Condensed, Medium Condensed';text-align:center;text-anchor:middle;fill:#f0f0f0;fill-opacity:1;stroke-width:0.26458332"
         id="path2806" />
      <path
         d="m 196.18027,215.7765 q 0.0635,0 0.0635,0.0635 v 0.40005 q 0,0.0635 -0.0635,0.0635 h -0.83185 q -0.0254,0 -0.0254,0.0254 v 3.82905 q 0,0.0635 -0.0635,0.0635 h -0.4826 q -0.0635,0 -0.0635,-0.0635 v -3.82905 q 0,-0.0254 -0.0254,-0.0254 h -0.7874 q -0.0635,0 -0.0635,-0.0635 V 215.84 q 0,-0.0635 0.0635,-0.0635 z"
         style="font-style:normal;font-variant:normal;font-weight:500;font-stretch:condensed;font-size:6.3499999px;line-height:0;font-family:'Barlow Condensed';-inkscape-font-specification:'Barlow Condensed, Medium Condensed';text-align:center;text-anchor:middle;fill:#f0f0f0;fill-opacity:1;stroke-width:0.26458332"
         id="path2808" />
    </g>
    <g
       aria-label="DEVICE
"
       style="font-style:normal;font-variant:normal;font-weight:normal;font-stretch:normal;font-size:10.58333302px;line-height:1.25;font-family:Barlow;-inkscape-font-specification:Barlow;text-align:center;letter-spacing:0px;word-spacing:0px;text-anchor:middle;fill:#000000;fill-opacity:1;stroke:none;stroke-width:0.26458332"
       id="text821-9-7">
      <path
         d="m 175.2397,226.07449 q -0.0635,0 -0.0635,-0.0635 v -4.318 q 0,-0.0635 0.0635,-0.0635 h 1.0414 q 0.52705,0 0.8382,0.32385 0.31115,0.32385 0.31115,0.8763 v 2.0447 q 0,0.55245 -0.31115,0.8763 -0.31115,0.32385 -0.8382,0.32385 z m 0.5461,-0.55245 q 0,0.0254 0.0254,0.0254 l 0.46355,-0.006 q 0.2413,0 0.38735,-0.18415 0.14605,-0.1905 0.1524,-0.51435 v -1.9812 q 0,-0.32385 -0.14605,-0.51435 -0.14605,-0.1905 -0.3937,-0.1905 h -0.46355 q -0.0254,0 -0.0254,0.0254 z"
         style="font-style:normal;font-variant:normal;font-weight:500;font-stretch:condensed;font-size:6.3499999px;line-height:0;font-family:'Barlow Condensed';-inkscape-font-specification:'Barlow Condensed, Medium Condensed';text-align:center;text-anchor:middle;fill:#f0f0f0;fill-opacity:1;stroke-width:0.26458332"
         id="path2777" />
      <path
         d="m 180.24281,222.09304 q 0,0.0635 -0.0635,0.0635 h -1.42875 q -0.0254,0 -0.0254,0.0254 v 1.37795 q 0,0.0254 0.0254,0.0254 h 0.8763 q 0.0635,0 0.0635,0.0635 v 0.40005 q 0,0.0635 -0.0635,0.0635 h -0.8763 q -0.0254,0 -0.0254,0.0254 v 1.3843 q 0,0.0254 0.0254,0.0254 h 1.42875 q 0.0635,0 0.0635,0.0635 v 0.40005 q 0,0.0635 -0.0635,0.0635 h -2.00025 q -0.0635,0 -0.0635,-0.0635 v -4.318 q 0,-0.0635 0.0635,-0.0635 h 2.00025 q 0.0635,0 0.0635,0.0635 z"
         style="font-style:normal;font-variant:normal;font-weight:500;font-stretch:condensed;font-size:6.3499999px;line-height:0;font-family:'Barlow Condensed';-inkscape-font-specification:'Barlow Condensed, Medium Condensed';text-align:center;text-anchor:middle;fill:#f0f0f0;fill-opacity:1;stroke-width:0.26458332"
         id="path2779" />
      <path
         d="m 181.64388,226.07449 q -0.0572,0 -0.0699,-0.0572 l -0.9144,-4.318 v -0.0127 q 0,-0.0572 0.0572,-0.0572 h 0.52705 q 0.0635,0 0.0699,0.0572 l 0.60325,3.29565 q 0.006,0.0127 0.0127,0.0127 0.006,0 0.0127,-0.0127 l 0.59055,-3.29565 q 0.0127,-0.0572 0.0699,-0.0572 h 0.508 q 0.0699,0 0.0572,0.0699 l -0.9144,4.318 q -0.006,0.0572 -0.0699,0.0572 z"
         style="font-style:normal;font-variant:normal;font-weight:500;font-stretch:condensed;font-size:6.3499999px;line-height:0;font-family:'Barlow Condensed';-inkscape-font-specification:'Barlow Condensed, Medium Condensed';text-align:center;text-anchor:middle;fill:#f0f0f0;fill-opacity:1;stroke-width:0.26458332"
         id="path2781" />
      <path
         d="m 183.82213,226.07449 q -0.0635,0 -0.0635,-0.0635 v -4.318 q 0,-0.0635 0.0635,-0.0635 h 0.4826 q 0.0635,0 0.0635,0.0635 v 4.318 q 0,0.0635 -0.0635,0.0635 z"
         style="font-style:normal;font-variant:normal;font-weight:500;font-stretch:condensed;font-size:6.3499999px;line-height:0;font-family:'Barlow Condensed';-inkscape-font-specification:'Barlow Condensed, Medium Condensed';text-align:center;text-anchor:middle;fill:#f0f0f0;fill-opacity:1;stroke-width:0.26458332"
         id="path2783" />
      <path
         d="m 186.21419,226.12529 q -0.51435,0 -0.83185,-0.31115 -0.31115,-0.3175 -0.31115,-0.8382 v -2.25425 q 0,-0.5207 0.31115,-0.83185 0.3175,-0.31115 0.83185,-0.31115 0.5207,0 0.83185,0.31115 0.3175,0.31115 0.3175,0.83185 v 0.1016 q 0,0.0635 -0.0635,0.0635 l -0.4826,0.0254 q -0.0635,0 -0.0635,-0.0635 v -0.1651 q 0,-0.26035 -0.1524,-0.4191 -0.14605,-0.15875 -0.38735,-0.15875 -0.2413,0 -0.38735,0.15875 -0.14605,0.15875 -0.14605,0.4191 v 2.3368 q 0,0.26035 0.14605,0.4191 0.14605,0.15875 0.38735,0.15875 0.2413,0 0.38735,-0.15875 0.1524,-0.15875 0.1524,-0.4191 v -0.1651 q 0,-0.0635 0.0635,-0.0635 l 0.4826,0.0254 q 0.0635,0 0.0635,0.0635 v 0.0953 q 0,0.5207 -0.3175,0.8382 -0.31115,0.31115 -0.83185,0.31115 z"
         style="font-style:normal;font-variant:normal;font-weight:500;font-stretch:condensed;font-size:6.3499999px;line-height:0;font-family:'Barlow Condensed';-inkscape-font-specification:'Barlow Condensed, Medium Condensed';text-align:center;text-anchor:middle;fill:#f0f0f0;fill-opacity:1;stroke-width:0.26458332"
         id="path2785" />
      <path
         d="m 190.15228,222.09304 q 0,0.0635 -0.0635,0.0635 h -1.42875 q -0.0254,0 -0.0254,0.0254 v 1.37795 q 0,0.0254 0.0254,0.0254 h 0.8763 q 0.0635,0 0.0635,0.0635 v 0.40005 q 0,0.0635 -0.0635,0.0635 h -0.8763 q -0.0254,0 -0.0254,0.0254 v 1.3843 q 0,0.0254 0.0254,0.0254 h 1.42875 q 0.0635,0 0.0635,0.0635 v 0.40005 q 0,0.0635 -0.0635,0.0635 h -2.00025 q -0.0635,0 -0.0635,-0.0635 v -4.318 q 0,-0.0635 0.0635,-0.0635 h 2.00025 q 0.0635,0 0.0635,0.0635 z"
         style="font-style:normal;font-variant:normal;font-weight:500;font-stretch:condensed;font-size:6.3499999px;line-height:0;font-family:'Barlow Condensed';-inkscape-font-specification:'Barlow Condensed, Medium Condensed';text-align:center;text-anchor:middle;fill:#f0f0f0;fill-opacity:1;stroke-width:0.26458332"
         id="path2787" />
    </g>
    <rect
       style="opacity:1;fill:#141414;fill-opacity:1;stroke:#f0f0f0;stroke-width:0.96499991;stroke-linecap:butt;stroke-linejoin:round;stroke-miterlimit:4;stroke-dasharray:none;stroke-dashoffset:0;stroke-opacity:1;paint-order:markers fill stroke"
       id="rect817-8"
       width="40.254463"
       height="32.694942"
       x="60.019402"
       y="204.48071"
       rx="2.3798881" />
    <g
       aria-label="CONFIGURE"
       style="font-style:normal;font-variant:normal;font-weight:normal;font-stretch:normal;font-size:10.58333302px;line-height:1.25;font-family:Barlow;-inkscape-font-specification:Barlow;text-align:center;letter-spacing:0px;word-spacing:0px;text-anchor:middle;fill:#000000;fill-opacity:1;stroke:none;stroke-width:0.26458332"
       id="text821-7">
      <path
         d="m 69.420096,212.33492 q -0.51435,0 -0.83185,-0.31115 -0.31115,-0.3175 -0.31115,-0.8382 v -2.25425 q 0,-0.5207 0.31115,-0.83185 0.3175,-0.31115 0.83185,-0.31115 0.5207,0 0.83185,0.31115 0.3175,0.31115 0.3175,0.83185 v 0.1016 q 0,0.0635 -0.0635,0.0635 l -0.4826,0.0254 q -0.0635,0 -0.0635,-0.0635 v -0.1651 q 0,-0.26035 -0.1524,-0.4191 -0.14605,-0.15875 -0.38735,-0.15875 -0.2413,0 -0.38735,0.15875 -0.14605,0.15875 -0.14605,0.4191 v 2.3368 q 0,0.26035 0.14605,0.4191 0.14605,0.15875 0.38735,0.15875 0.2413,0 0.38735,-0.15875 0.1524,-0.15875 0.1524,-0.4191 v -0.1651 q 0,-0.0635 0.0635,-0.0635 l 0.4826,0.0254 q 0.0635,0 0.0635,0.0635 v 0.0953 q 0,0.5207 -0.3175,0.8382 -0.31115,0.31115 -0.83185,0.31115 z"
         style="font-style:normal;font-variant:normal;font-weight:500;font-stretch:condensed;font-size:6.3499999px;line-height:0;font-family:'Barlow Condensed';-inkscape-font-specification:'Barlow Condensed, Medium Condensed';text-align:center;text-anchor:middle;fill:#f0f0f0;fill-opacity:1;stroke-width:0.26458332"
         id="path2917" />
      <path
         d="m 72.297738,212.33492 q -0.5207,0 -0.8382,-0.3175 -0.3175,-0.3175 -0.3175,-0.84455 v -2.21615 q 0,-0.52705 0.3175,-0.84455 0.3175,-0.32385 0.8382,-0.32385 0.52705,0 0.84455,0.32385 0.32385,0.3175 0.32385,0.84455 v 2.21615 q 0,0.52705 -0.32385,0.84455 -0.3175,0.3175 -0.84455,0.3175 z m 0,-0.52705 q 0.254,0 0.4064,-0.1651 0.1524,-0.17145 0.1524,-0.4445 v -2.2733 q 0,-0.27305 -0.1524,-0.43815 -0.1524,-0.17145 -0.4064,-0.17145 -0.24765,0 -0.40005,0.17145 -0.14605,0.1651 -0.14605,0.43815 v 2.2733 q 0,0.27305 0.14605,0.4445 0.1524,0.1651 0.40005,0.1651 z"
         style="font-style:normal;font-variant:normal;font-weight:500;font-stretch:condensed;font-size:6.3499999px;line-height:0;font-family:'Barlow Condensed';-inkscape-font-specification:'Barlow Condensed, Medium Condensed';text-align:center;text-anchor:middle;fill:#f0f0f0;fill-opacity:1;stroke-width:0.26458332"
         id="path2919" />
      <path
         d="m 75.960993,207.90262 q 0,-0.0635 0.0635,-0.0635 h 0.47625 q 0.0635,0 0.0635,0.0635 v 4.318 q 0,0.0635 -0.0635,0.0635 h -0.5461 q -0.0508,0 -0.06985,-0.0508 l -1.0795,-2.90195 q -0.0064,-0.0127 -0.01905,-0.006 -0.0127,0 -0.0127,0.0127 l 0.0063,2.8829 q 0,0.0635 -0.0635,0.0635 h -0.4826 q -0.0635,0 -0.0635,-0.0635 v -4.318 q 0,-0.0635 0.0635,-0.0635 h 0.53975 q 0.0508,0 0.06985,0.0508 l 1.08585,2.90195 q 0.0063,0.0191 0.01905,0.0191 0.0127,-0.006 0.0127,-0.0254 z"
         style="font-style:normal;font-variant:normal;font-weight:500;font-stretch:condensed;font-size:6.3499999px;line-height:0;font-family:'Barlow Condensed';-inkscape-font-specification:'Barlow Condensed, Medium Condensed';text-align:center;text-anchor:middle;fill:#f0f0f0;fill-opacity:1;stroke-width:0.26458332"
         id="path2921" />
      <path
         d="m 79.478596,208.30267 q 0,0.0635 -0.0635,0.0635 h -1.4224 q -0.0254,0 -0.0254,0.0254 v 1.37795 q 0,0.0254 0.0254,0.0254 h 0.86995 q 0.0635,0 0.0635,0.0635 v 0.40005 q 0,0.0635 -0.0635,0.0635 h -0.86995 q -0.0254,0 -0.0254,0.0254 v 1.87325 q 0,0.0635 -0.0635,0.0635 h -0.4826 q -0.0635,0 -0.0635,-0.0635 v -4.318 q 0,-0.0635 0.0635,-0.0635 h 1.9939 q 0.0635,0 0.0635,0.0635 z"
         style="font-style:normal;font-variant:normal;font-weight:500;font-stretch:condensed;font-size:6.3499999px;line-height:0;font-family:'Barlow Condensed';-inkscape-font-specification:'Barlow Condensed, Medium Condensed';text-align:center;text-anchor:middle;fill:#f0f0f0;fill-opacity:1;stroke-width:0.26458332"
         id="path2923" />
      <path
         d="m 80.025688,212.28412 q -0.0635,0 -0.0635,-0.0635 v -4.318 q 0,-0.0635 0.0635,-0.0635 h 0.4826 q 0.0635,0 0.0635,0.0635 v 4.318 q 0,0.0635 -0.0635,0.0635 z"
         style="font-style:normal;font-variant:normal;font-weight:500;font-stretch:condensed;font-size:6.3499999px;line-height:0;font-family:'Barlow Condensed';-inkscape-font-specification:'Barlow Condensed, Medium Condensed';text-align:center;text-anchor:middle;fill:#f0f0f0;fill-opacity:1;stroke-width:0.26458332"
         id="path2925" />
      <path
         d="m 82.417752,212.33492 q -0.51435,0 -0.83185,-0.3048 -0.31115,-0.3048 -0.31115,-0.80645 v -2.3241 q 0,-0.50165 0.31115,-0.80645 0.3175,-0.3048 0.83185,-0.3048 0.51435,0 0.83185,0.3048 0.3175,0.3048 0.3175,0.8128 v 0.2667 q 0,0.0635 -0.0635,0.0635 h -0.4826 q -0.0635,0 -0.0635,-0.0635 v -0.2794 q 0,-0.26035 -0.1524,-0.4191 -0.14605,-0.15875 -0.38735,-0.15875 -0.2413,0 -0.3937,0.15875 -0.14605,0.15875 -0.14605,0.4191 v 2.3368 q 0,0.26035 0.14605,0.4191 0.1524,0.15875 0.3937,0.15875 0.2413,0 0.38735,-0.15875 0.1524,-0.15875 0.1524,-0.4191 v -0.6985 q 0,-0.0254 -0.0254,-0.0254 h -0.4826 q -0.0635,0 -0.0635,-0.0635 v -0.3937 q 0,-0.0635 0.0635,-0.0635 h 1.0541 q 0.0635,0 0.0635,0.0635 v 1.17475 q 0,0.50165 -0.3175,0.80645 -0.3175,0.3048 -0.83185,0.3048 z"
         style="font-style:normal;font-variant:normal;font-weight:500;font-stretch:condensed;font-size:6.3499999px;line-height:0;font-family:'Barlow Condensed';-inkscape-font-specification:'Barlow Condensed, Medium Condensed';text-align:center;text-anchor:middle;fill:#f0f0f0;fill-opacity:1;stroke-width:0.26458332"
         id="path2927" />
      <path
         d="m 85.3834,212.33492 q -0.5207,0 -0.8382,-0.3429 -0.31115,-0.34925 -0.31115,-0.9144 v -3.175 q 0,-0.0635 0.0635,-0.0635 h 0.4826 q 0.0635,0 0.0635,0.0635 v 3.2385 q 0,0.29845 0.14605,0.4826 0.1524,0.18415 0.3937,0.18415 0.24765,0 0.3937,-0.18415 0.1524,-0.18415 0.1524,-0.4826 v -3.2385 q 0,-0.0635 0.0635,-0.0635 h 0.4826 q 0.0635,0 0.0635,0.0635 v 3.175 q 0,0.56515 -0.3175,0.9144 -0.3175,0.3429 -0.8382,0.3429 z"
         style="font-style:normal;font-variant:normal;font-weight:500;font-stretch:condensed;font-size:6.3499999px;line-height:0;font-family:'Barlow Condensed';-inkscape-font-specification:'Barlow Condensed, Medium Condensed';text-align:center;text-anchor:middle;fill:#f0f0f0;fill-opacity:1;stroke-width:0.26458332"
         id="path2929" />
      <path
         d="m 89.057272,212.28412 q -0.05715,0 -0.0762,-0.0508 l -0.5842,-1.8923 q -0.0063,-0.019 -0.0254,-0.019 h -0.4445 q -0.0254,0 -0.0254,0.0254 v 1.87325 q 0,0.0635 -0.0635,0.0635 h -0.4826 q -0.0635,0 -0.0635,-0.0635 v -4.318 q 0,-0.0635 0.0635,-0.0635 h 1.13665 q 0.32385,0 0.5715,0.15875 0.24765,0.15875 0.381,0.45085 0.1397,0.28575 0.1397,0.65405 0,0.40005 -0.1651,0.6985 -0.1651,0.2921 -0.45085,0.42545 -0.01905,0.019 -0.0127,0.0381 l 0.6477,1.94945 0.0064,0.0254 q 0,0.0445 -0.05715,0.0445 z m -1.1303,-3.91795 q -0.0254,0 -0.0254,0.0254 v 1.4224 q 0,0.0254 0.0254,0.0254 h 0.4699 q 0.26035,0 0.4191,-0.19685 0.15875,-0.2032 0.15875,-0.5334 0,-0.3429 -0.15875,-0.53975 -0.15875,-0.2032 -0.4191,-0.2032 z"
         style="font-style:normal;font-variant:normal;font-weight:500;font-stretch:condensed;font-size:6.3499999px;line-height:0;font-family:'Barlow Condensed';-inkscape-font-specification:'Barlow Condensed, Medium Condensed';text-align:center;text-anchor:middle;fill:#f0f0f0;fill-opacity:1;stroke-width:0.26458332"
         id="path2931" />
      <path
         d="m 92.296566,208.30267 q 0,0.0635 -0.0635,0.0635 h -1.42875 q -0.0254,0 -0.0254,0.0254 v 1.37795 q 0,0.0254 0.0254,0.0254 h 0.8763 q 0.0635,0 0.0635,0.0635 v 0.40005 q 0,0.0635 -0.0635,0.0635 h -0.8763 q -0.0254,0 -0.0254,0.0254 v 1.3843 q 0,0.0254 0.0254,0.0254 h 1.42875 q 0.0635,0 0.0635,0.0635 v 0.40005 q 0,0.0635 -0.0635,0.0635 h -2.00025 q -0.0635,0 -0.0635,-0.0635 v -4.318 q 0,-0.0635 0.0635,-0.0635 h 2.00025 q 0.0635,0 0.0635,0.0635 z"
         style="font-style:normal;font-variant:normal;font-weight:500;font-stretch:condensed;font-size:6.3499999px;line-height:0;font-family:'Barlow Condensed';-inkscape-font-specification:'Barlow Condensed, Medium Condensed';text-align:center;text-anchor:middle;fill:#f0f0f0;fill-opacity:1;stroke-width:0.26458332"
         id="path2933" />
    </g>
    <g
       aria-label="FLOWMETER,"
       style="font-style:normal;font-variant:normal;font-weight:normal;font-stretch:normal;font-size:10.58333302px;line-height:1.25;font-family:Barlow;-inkscape-font-specification:Barlow;text-align:center;letter-spacing:0px;word-spacing:0px;text-anchor:middle;fill:#000000;fill-opacity:1;stroke:none;stroke-width:0.26458332"
       id="text821-9-6">
      <path
         d="m 68.773208,214.05058 q 0,0.0635 -0.0635,0.0635 h -1.4224 q -0.0254,0 -0.0254,0.0254 v 1.37795 q 0,0.0254 0.0254,0.0254 h 0.86995 q 0.0635,0 0.0635,0.0635 v 0.40005 q 0,0.0635 -0.0635,0.0635 h -0.86995 q -0.0254,0 -0.0254,0.0254 v 1.87325 q 0,0.0635 -0.0635,0.0635 h -0.4826 q -0.0635,0 -0.0635,-0.0635 v -4.318 q 0,-0.0635 0.0635,-0.0635 h 1.9939 q 0.0635,0 0.0635,0.0635 z"
         style="font-style:normal;font-variant:normal;font-weight:500;font-stretch:condensed;font-size:6.3499999px;line-height:0;font-family:'Barlow Condensed';-inkscape-font-specification:'Barlow Condensed, Medium Condensed';text-align:center;text-anchor:middle;fill:#f0f0f0;fill-opacity:1;stroke-width:0.26458332"
         id="path2896" />
      <path
         d="m 69.3203,218.03203 q -0.0635,0 -0.0635,-0.0635 v -4.318 q 0,-0.0635 0.0635,-0.0635 h 0.4826 q 0.0635,0 0.0635,0.0635 v 3.82905 q 0,0.0254 0.0254,0.0254 h 1.4224 q 0.0635,0 0.0635,0.0635 v 0.40005 q 0,0.0635 -0.0635,0.0635 z"
         style="font-style:normal;font-variant:normal;font-weight:500;font-stretch:condensed;font-size:6.3499999px;line-height:0;font-family:'Barlow Condensed';-inkscape-font-specification:'Barlow Condensed, Medium Condensed';text-align:center;text-anchor:middle;fill:#f0f0f0;fill-opacity:1;stroke-width:0.26458332"
         id="path2898" />
      <path
         d="m 72.890885,218.08283 q -0.5207,0 -0.8382,-0.3175 -0.3175,-0.3175 -0.3175,-0.84455 v -2.21615 q 0,-0.52705 0.3175,-0.84455 0.3175,-0.32385 0.8382,-0.32385 0.52705,0 0.84455,0.32385 0.32385,0.3175 0.32385,0.84455 v 2.21615 q 0,0.52705 -0.32385,0.84455 -0.3175,0.3175 -0.84455,0.3175 z m 0,-0.52705 q 0.254,0 0.4064,-0.1651 0.1524,-0.17145 0.1524,-0.4445 v -2.2733 q 0,-0.27305 -0.1524,-0.43815 -0.1524,-0.17145 -0.4064,-0.17145 -0.24765,0 -0.40005,0.17145 -0.14605,0.1651 -0.14605,0.43815 v 2.2733 q 0,0.27305 0.14605,0.4445 0.1524,0.1651 0.40005,0.1651 z"
         style="font-style:normal;font-variant:normal;font-weight:500;font-stretch:condensed;font-size:6.3499999px;line-height:0;font-family:'Barlow Condensed';-inkscape-font-specification:'Barlow Condensed, Medium Condensed';text-align:center;text-anchor:middle;fill:#f0f0f0;fill-opacity:1;stroke-width:0.26458332"
         id="path2900" />
      <path
         d="m 75.436838,218.03203 q -0.05715,0 -0.06985,-0.0571 l -0.84455,-4.318 v -0.0127 q 0,-0.0572 0.05715,-0.0572 h 0.50165 q 0.0635,0 0.06985,0.0572 l 0.51435,2.97815 q 0.0064,0.0127 0.0127,0.0127 0.0063,0 0.0127,-0.0127 l 0.4572,-2.97815 q 0.0063,-0.0572 0.0635,-0.0572 h 0.42545 q 0.05715,0 0.0635,0.0572 l 0.48895,2.97815 q 0.0063,0.0127 0.0127,0.0127 0.0063,0 0.0127,-0.0127 l 0.4699,-2.97815 q 0.0127,-0.0572 0.0635,-0.0572 h 0.4953 q 0.03175,0 0.04445,0.019 0.01905,0.0191 0.0127,0.0508 l -0.8001,4.318 q -0.0063,0.0571 -0.06985,0.0571 h -0.45085 q -0.0508,0 -0.0635,-0.0571 l -0.4826,-3.00355 q -0.0064,-0.0127 -0.01905,-0.0127 -0.0063,0 -0.0063,0.0127 l -0.4572,3.00355 q -0.0063,0.0571 -0.0635,0.0571 z"
         style="font-style:normal;font-variant:normal;font-weight:500;font-stretch:condensed;font-size:6.3499999px;line-height:0;font-family:'Barlow Condensed';-inkscape-font-specification:'Barlow Condensed, Medium Condensed';text-align:center;text-anchor:middle;fill:#f0f0f0;fill-opacity:1;stroke-width:0.26458332"
         id="path2902" />
      <path
         d="m 80.831064,213.63148 q 0.0254,-0.0445 0.0762,-0.0445 h 0.4826 q 0.0635,0 0.0635,0.0635 v 4.318 q 0,0.0635 -0.0635,0.0635 h -0.4826 q -0.0635,0 -0.0635,-0.0635 v -3.1496 q 0,-0.019 -0.0127,-0.019 -0.0063,0 -0.01905,0.0127 l -0.6096,1.13665 q -0.01905,0.0445 -0.05715,0.0445 -0.0381,0 -0.05715,-0.0445 l -0.60325,-1.1303 q -0.0127,-0.0127 -0.0254,-0.0127 -0.0063,0 -0.0063,0.019 v 3.14325 q 0,0.0635 -0.0635,0.0635 h -0.4826 q -0.0635,0 -0.0635,-0.0635 v -4.318 q 0,-0.0635 0.0635,-0.0635 h 0.4826 q 0.04445,0 0.0762,0.0445 l 0.66675,1.1938 q 0.0063,0.006 0.01905,0.006 0.0127,0 0.01905,-0.006 z"
         style="font-style:normal;font-variant:normal;font-weight:500;font-stretch:condensed;font-size:6.3499999px;line-height:0;font-family:'Barlow Condensed';-inkscape-font-specification:'Barlow Condensed, Medium Condensed';text-align:center;text-anchor:middle;fill:#f0f0f0;fill-opacity:1;stroke-width:0.26458332"
         id="path2904" />
      <path
         d="m 84.344499,214.05058 q 0,0.0635 -0.0635,0.0635 h -1.42875 q -0.0254,0 -0.0254,0.0254 v 1.37795 q 0,0.0254 0.0254,0.0254 h 0.8763 q 0.0635,0 0.0635,0.0635 v 0.40005 q 0,0.0635 -0.0635,0.0635 h -0.8763 q -0.0254,0 -0.0254,0.0254 v 1.3843 q 0,0.0254 0.0254,0.0254 h 1.42875 q 0.0635,0 0.0635,0.0635 v 0.40005 q 0,0.0635 -0.0635,0.0635 h -2.00025 q -0.0635,0 -0.0635,-0.0635 v -4.318 q 0,-0.0635 0.0635,-0.0635 h 2.00025 q 0.0635,0 0.0635,0.0635 z"
         style="font-style:normal;font-variant:normal;font-weight:500;font-stretch:condensed;font-size:6.3499999px;line-height:0;font-family:'Barlow Condensed';-inkscape-font-specification:'Barlow Condensed, Medium Condensed';text-align:center;text-anchor:middle;fill:#f0f0f0;fill-opacity:1;stroke-width:0.26458332"
         id="path2906" />
      <path
         d="m 87.098116,213.58703 q 0.0635,0 0.0635,0.0635 v 0.40005 q 0,0.0635 -0.0635,0.0635 h -0.83185 q -0.0254,0 -0.0254,0.0254 v 3.82905 q 0,0.0635 -0.0635,0.0635 h -0.4826 q -0.0635,0 -0.0635,-0.0635 v -3.82905 q 0,-0.0254 -0.0254,-0.0254 h -0.7874 q -0.0635,0 -0.0635,-0.0635 v -0.40005 q 0,-0.0635 0.0635,-0.0635 z"
         style="font-style:normal;font-variant:normal;font-weight:500;font-stretch:condensed;font-size:6.3499999px;line-height:0;font-family:'Barlow Condensed';-inkscape-font-specification:'Barlow Condensed, Medium Condensed';text-align:center;text-anchor:middle;fill:#f0f0f0;fill-opacity:1;stroke-width:0.26458332"
         id="path2908" />
      <path
         d="m 89.875944,214.05058 q 0,0.0635 -0.0635,0.0635 h -1.42875 q -0.0254,0 -0.0254,0.0254 v 1.37795 q 0,0.0254 0.0254,0.0254 h 0.8763 q 0.0635,0 0.0635,0.0635 v 0.40005 q 0,0.0635 -0.0635,0.0635 h -0.8763 q -0.0254,0 -0.0254,0.0254 v 1.3843 q 0,0.0254 0.0254,0.0254 h 1.42875 q 0.0635,0 0.0635,0.0635 v 0.40005 q 0,0.0635 -0.0635,0.0635 h -2.00025 q -0.0635,0 -0.0635,-0.0635 v -4.318 q 0,-0.0635 0.0635,-0.0635 h 2.00025 q 0.0635,0 0.0635,0.0635 z"
         style="font-style:normal;font-variant:normal;font-weight:500;font-stretch:condensed;font-size:6.3499999px;line-height:0;font-family:'Barlow Condensed';-inkscape-font-specification:'Barlow Condensed, Medium Condensed';text-align:center;text-anchor:middle;fill:#f0f0f0;fill-opacity:1;stroke-width:0.26458332"
         id="path2910" />
      <path
         d="m 92.254911,218.03203 q -0.05715,0 -0.0762,-0.0508 l -0.5842,-1.8923 q -0.0063,-0.019 -0.0254,-0.019 h -0.4445 q -0.0254,0 -0.0254,0.0254 v 1.87325 q 0,0.0635 -0.0635,0.0635 h -0.4826 q -0.0635,0 -0.0635,-0.0635 v -4.318 q 0,-0.0635 0.0635,-0.0635 h 1.13665 q 0.32385,0 0.5715,0.15875 0.24765,0.15875 0.381,0.45085 0.1397,0.28575 0.1397,0.65405 0,0.40005 -0.1651,0.6985 -0.1651,0.2921 -0.45085,0.42545 -0.01905,0.0191 -0.0127,0.0381 l 0.6477,1.94945 0.0063,0.0254 q 0,0.0444 -0.05715,0.0444 z m -1.1303,-3.91795 q -0.0254,0 -0.0254,0.0254 v 1.4224 q 0,0.0254 0.0254,0.0254 h 0.4699 q 0.26035,0 0.4191,-0.19685 0.15875,-0.2032 0.15875,-0.5334 0,-0.3429 -0.15875,-0.53975 -0.15875,-0.2032 -0.4191,-0.2032 z"
         style="font-style:normal;font-variant:normal;font-weight:500;font-stretch:condensed;font-size:6.3499999px;line-height:0;font-family:'Barlow Condensed';-inkscape-font-specification:'Barlow Condensed, Medium Condensed';text-align:center;text-anchor:middle;fill:#f0f0f0;fill-opacity:1;stroke-width:0.26458332"
         id="path2912" />
      <path
         d="m 93.259005,218.57813 q -0.03175,0 -0.0508,-0.0254 -0.01905,-0.019 -0.0127,-0.0444 l 0.18415,-1.4097 q 0.0063,-0.0572 0.0635,-0.0572 h 0.4191 q 0.06985,0 0.05715,0.0699 l -0.3048,1.4097 q -0.0063,0.0571 -0.06985,0.0571 z"
         style="font-style:normal;font-variant:normal;font-weight:500;font-stretch:condensed;font-size:6.3499999px;line-height:0;font-family:'Barlow Condensed';-inkscape-font-specification:'Barlow Condensed, Medium Condensed';text-align:center;text-anchor:middle;fill:#f0f0f0;fill-opacity:1;stroke-width:0.26458332"
         id="path2914" />
    </g>
    <g
       aria-label="FILTERS,"
       style="font-style:normal;font-variant:normal;font-weight:normal;font-stretch:normal;font-size:10.58333302px;line-height:1.25;font-family:Barlow;-inkscape-font-specification:Barlow;text-align:center;letter-spacing:0px;word-spacing:0px;text-anchor:middle;fill:#000000;fill-opacity:1;stroke:none;stroke-width:0.26458332"
       id="text821-9-6-9">
      <path
         d="m 73.504702,220.04614 q 0,0.0635 -0.0635,0.0635 h -1.4224 q -0.0254,0 -0.0254,0.0254 v 1.37795 q 0,0.0254 0.0254,0.0254 h 0.86995 q 0.0635,0 0.0635,0.0635 v 0.40005 q 0,0.0635 -0.0635,0.0635 h -0.86995 q -0.0254,0 -0.0254,0.0254 v 1.87325 q 0,0.0635 -0.0635,0.0635 h -0.4826 q -0.0635,0 -0.0635,-0.0635 v -4.318 q 0,-0.0635 0.0635,-0.0635 h 1.9939 q 0.0635,0 0.0635,0.0635 z"
         style="font-style:normal;font-variant:normal;font-weight:500;font-stretch:condensed;font-size:6.3499999px;line-height:0;font-family:'Barlow Condensed';-inkscape-font-specification:'Barlow Condensed, Medium Condensed';text-align:center;text-anchor:middle;fill:#f0f0f0;fill-opacity:1;stroke-width:0.26458332"
         id="path2879" />
      <path
         d="m 74.051794,224.02759 q -0.0635,0 -0.0635,-0.0635 v -4.318 q 0,-0.0635 0.0635,-0.0635 h 0.4826 q 0.0635,0 0.0635,0.0635 v 4.318 q 0,0.0635 -0.0635,0.0635 z"
         style="font-style:normal;font-variant:normal;font-weight:500;font-stretch:condensed;font-size:6.3499999px;line-height:0;font-family:'Barlow Condensed';-inkscape-font-specification:'Barlow Condensed, Medium Condensed';text-align:center;text-anchor:middle;fill:#f0f0f0;fill-opacity:1;stroke-width:0.26458332"
         id="path2881" />
      <path
         d="m 75.453259,224.02759 q -0.0635,0 -0.0635,-0.0635 v -4.318 q 0,-0.0635 0.0635,-0.0635 h 0.4826 q 0.0635,0 0.0635,0.0635 v 3.82905 q 0,0.0254 0.0254,0.0254 h 1.4224 q 0.0635,0 0.0635,0.0635 v 0.40005 q 0,0.0635 -0.0635,0.0635 z"
         style="font-style:normal;font-variant:normal;font-weight:500;font-stretch:condensed;font-size:6.3499999px;line-height:0;font-family:'Barlow Condensed';-inkscape-font-specification:'Barlow Condensed, Medium Condensed';text-align:center;text-anchor:middle;fill:#f0f0f0;fill-opacity:1;stroke-width:0.26458332"
         id="path2883" />
      <path
         d="m 79.662912,219.58259 q 0.0635,0 0.0635,0.0635 v 0.40005 q 0,0.0635 -0.0635,0.0635 h -0.83185 q -0.0254,0 -0.0254,0.0254 v 3.82905 q 0,0.0635 -0.0635,0.0635 h -0.4826 q -0.0635,0 -0.0635,-0.0635 v -3.82905 q 0,-0.0254 -0.0254,-0.0254 h -0.7874 q -0.0635,0 -0.0635,-0.0635 v -0.40005 q 0,-0.0635 0.0635,-0.0635 z"
         style="font-style:normal;font-variant:normal;font-weight:500;font-stretch:condensed;font-size:6.3499999px;line-height:0;font-family:'Barlow Condensed';-inkscape-font-specification:'Barlow Condensed, Medium Condensed';text-align:center;text-anchor:middle;fill:#f0f0f0;fill-opacity:1;stroke-width:0.26458332"
         id="path2885" />
      <path
         d="m 82.440739,220.04614 q 0,0.0635 -0.0635,0.0635 h -1.42875 q -0.0254,0 -0.0254,0.0254 v 1.37795 q 0,0.0254 0.0254,0.0254 h 0.8763 q 0.0635,0 0.0635,0.0635 v 0.40005 q 0,0.0635 -0.0635,0.0635 h -0.8763 q -0.0254,0 -0.0254,0.0254 v 1.3843 q 0,0.0254 0.0254,0.0254 h 1.42875 q 0.0635,0 0.0635,0.0635 v 0.40005 q 0,0.0635 -0.0635,0.0635 h -2.00025 q -0.0635,0 -0.0635,-0.0635 v -4.318 q 0,-0.0635 0.0635,-0.0635 h 2.00025 q 0.0635,0 0.0635,0.0635 z"
         style="font-style:normal;font-variant:normal;font-weight:500;font-stretch:condensed;font-size:6.3499999px;line-height:0;font-family:'Barlow Condensed';-inkscape-font-specification:'Barlow Condensed, Medium Condensed';text-align:center;text-anchor:middle;fill:#f0f0f0;fill-opacity:1;stroke-width:0.26458332"
         id="path2887" />
      <path
         d="m 84.819707,224.02759 q -0.05715,0 -0.0762,-0.0508 l -0.5842,-1.8923 q -0.0063,-0.019 -0.0254,-0.019 h -0.4445 q -0.0254,0 -0.0254,0.0254 v 1.87325 q 0,0.0635 -0.0635,0.0635 h -0.4826 q -0.0635,0 -0.0635,-0.0635 v -4.318 q 0,-0.0635 0.0635,-0.0635 h 1.13665 q 0.32385,0 0.5715,0.15875 0.24765,0.15875 0.381,0.45085 0.1397,0.28575 0.1397,0.65405 0,0.40005 -0.1651,0.6985 -0.1651,0.2921 -0.45085,0.42545 -0.01905,0.019 -0.0127,0.0381 l 0.6477,1.94945 0.0063,0.0254 q 0,0.0445 -0.05715,0.0445 z m -1.1303,-3.91795 q -0.0254,0 -0.0254,0.0254 v 1.4224 q 0,0.0254 0.0254,0.0254 h 0.4699 q 0.26035,0 0.4191,-0.19685 0.15875,-0.2032 0.15875,-0.5334 0,-0.3429 -0.15875,-0.53975 -0.15875,-0.2032 -0.4191,-0.2032 z"
         style="font-style:normal;font-variant:normal;font-weight:500;font-stretch:condensed;font-size:6.3499999px;line-height:0;font-family:'Barlow Condensed';-inkscape-font-specification:'Barlow Condensed, Medium Condensed';text-align:center;text-anchor:middle;fill:#f0f0f0;fill-opacity:1;stroke-width:0.26458332"
         id="path2889" />
      <path
         d="m 86.934158,224.07839 q -0.50165,0 -0.8128,-0.31115 -0.3048,-0.3175 -0.3048,-0.8255 v -0.1651 q 0,-0.0635 0.0635,-0.0635 h 0.4699 q 0.0635,0 0.0635,0.0635 v 0.13335 q 0,0.2921 0.14605,0.4699 0.14605,0.17145 0.37465,0.17145 0.2286,0 0.37465,-0.1651 0.1524,-0.17145 0.1524,-0.4445 0,-0.18415 -0.08255,-0.32385 -0.0762,-0.1397 -0.20955,-0.24765 -0.127,-0.1143 -0.4191,-0.3302 -0.32385,-0.2413 -0.508,-0.41275 -0.18415,-0.17145 -0.31115,-0.41275 -0.127,-0.2413 -0.127,-0.56515 0,-0.51435 0.3048,-0.8128 0.3048,-0.3048 0.79375,-0.3048 0.508,0 0.8128,0.32385 0.31115,0.32385 0.31115,0.8509 v 0.15875 q 0,0.0635 -0.0635,0.0635 h -0.4699 q -0.0635,0 -0.0635,-0.0635 v -0.17145 q 0,-0.28575 -0.14605,-0.4572 -0.14605,-0.1778 -0.381,-0.1778 -0.22225,0 -0.36195,0.15875 -0.1397,0.1524 -0.1397,0.4318 0,0.254 0.1397,0.4318 0.1397,0.17145 0.53975,0.46355 0.381,0.28575 0.5715,0.46355 0.19685,0.1778 0.29845,0.3937 0.10795,0.20955 0.10795,0.50165 0,0.5334 -0.31115,0.85725 -0.31115,0.3175 -0.8128,0.3175 z"
         style="font-style:normal;font-variant:normal;font-weight:500;font-stretch:condensed;font-size:6.3499999px;line-height:0;font-family:'Barlow Condensed';-inkscape-font-specification:'Barlow Condensed, Medium Condensed';text-align:center;text-anchor:middle;fill:#f0f0f0;fill-opacity:1;stroke-width:0.26458332"
         id="path2891" />
      <path
         d="m 88.527511,224.57369 q -0.03175,0 -0.0508,-0.0254 -0.01905,-0.0191 -0.0127,-0.0445 l 0.18415,-1.4097 q 0.0063,-0.0572 0.0635,-0.0572 h 0.4191 q 0.06985,0 0.05715,0.0699 l -0.3048,1.4097 q -0.0063,0.0572 -0.06985,0.0572 z"
         style="font-style:normal;font-variant:normal;font-weight:500;font-stretch:condensed;font-size:6.3499999px;line-height:0;font-family:'Barlow Condensed';-inkscape-font-specification:'Barlow Condensed, Medium Condensed';text-align:center;text-anchor:middle;fill:#f0f0f0;fill-opacity:1;stroke-width:0.26458332"
         id="path2893" />
    </g>
    <g
       aria-label="LINEARIZATION,"
       style="font-style:normal;font-variant:normal;font-weight:normal;font-stretch:normal;font-size:10.58333302px;line-height:1.25;font-family:Barlow;-inkscape-font-specification:Barlow;text-align:center;letter-spacing:0px;word-spacing:0px;text-anchor:middle;fill:#000000;fill-opacity:1;stroke:none;stroke-width:0.26458332"
       id="text821-9-6-5">
      <path
         d="m 63.906677,230.02315 q -0.0635,0 -0.0635,-0.0635 v -4.318 q 0,-0.0635 0.0635,-0.0635 h 0.4826 q 0.0635,0 0.0635,0.0635 v 3.82905 q 0,0.0254 0.0254,0.0254 h 1.4224 q 0.0635,0 0.0635,0.0635 v 0.40005 q 0,0.0635 -0.0635,0.0635 z"
         style="font-style:normal;font-variant:normal;font-weight:500;font-stretch:condensed;font-size:6.3499999px;line-height:0;font-family:'Barlow Condensed';-inkscape-font-specification:'Barlow Condensed, Medium Condensed';text-align:center;text-anchor:middle;fill:#f0f0f0;fill-opacity:1;stroke-width:0.26458332"
         id="path2850" />
      <path
         d="m 66.486364,230.02315 q -0.0635,0 -0.0635,-0.0635 v -4.318 q 0,-0.0635 0.0635,-0.0635 h 0.4826 q 0.0635,0 0.0635,0.0635 v 4.318 q 0,0.0635 -0.0635,0.0635 z"
         style="font-style:normal;font-variant:normal;font-weight:500;font-stretch:condensed;font-size:6.3499999px;line-height:0;font-family:'Barlow Condensed';-inkscape-font-specification:'Barlow Condensed, Medium Condensed';text-align:center;text-anchor:middle;fill:#f0f0f0;fill-opacity:1;stroke-width:0.26458332"
         id="path2852" />
      <path
         d="m 69.615029,225.64165 q 0,-0.0635 0.0635,-0.0635 h 0.47625 q 0.0635,0 0.0635,0.0635 v 4.318 q 0,0.0635 -0.0635,0.0635 h -0.5461 q -0.0508,0 -0.06985,-0.0508 l -1.0795,-2.90195 q -0.0063,-0.0127 -0.01905,-0.006 -0.0127,0 -0.0127,0.0127 l 0.0064,2.8829 q 0,0.0635 -0.0635,0.0635 h -0.4826 q -0.0635,0 -0.0635,-0.0635 v -4.318 q 0,-0.0635 0.0635,-0.0635 h 0.53975 q 0.0508,0 0.06985,0.0508 l 1.08585,2.90195 q 0.0063,0.019 0.01905,0.019 0.0127,-0.006 0.0127,-0.0254 z"
         style="font-style:normal;font-variant:normal;font-weight:500;font-stretch:condensed;font-size:6.3499999px;line-height:0;font-family:'Barlow Condensed';-inkscape-font-specification:'Barlow Condensed, Medium Condensed';text-align:center;text-anchor:middle;fill:#f0f0f0;fill-opacity:1;stroke-width:0.26458332"
         id="path2854" />
      <path
         d="m 73.138981,226.0417 q 0,0.0635 -0.0635,0.0635 h -1.42875 q -0.0254,0 -0.0254,0.0254 v 1.37795 q 0,0.0254 0.0254,0.0254 h 0.8763 q 0.0635,0 0.0635,0.0635 v 0.40005 q 0,0.0635 -0.0635,0.0635 h -0.8763 q -0.0254,0 -0.0254,0.0254 v 1.3843 q 0,0.0254 0.0254,0.0254 h 1.42875 q 0.0635,0 0.0635,0.0635 v 0.40005 q 0,0.0635 -0.0635,0.0635 h -2.00025 q -0.0635,0 -0.0635,-0.0635 v -4.318 q 0,-0.0635 0.0635,-0.0635 h 2.00025 q 0.0635,0 0.0635,0.0635 z"
         style="font-style:normal;font-variant:normal;font-weight:500;font-stretch:condensed;font-size:6.3499999px;line-height:0;font-family:'Barlow Condensed';-inkscape-font-specification:'Barlow Condensed, Medium Condensed';text-align:center;text-anchor:middle;fill:#f0f0f0;fill-opacity:1;stroke-width:0.26458332"
         id="path2856" />
      <path
         d="m 75.628975,230.02315 q -0.05715,0 -0.06985,-0.0571 l -0.1397,-0.73025 q 0,-0.0127 -0.0127,-0.019 -0.0063,-0.006 -0.01905,-0.006 h -1.03505 q -0.0127,0 -0.0254,0.006 -0.0063,0.006 -0.0063,0.019 l -0.13335,0.73025 q -0.0063,0.0571 -0.06985,0.0571 h -0.4826 q -0.03175,0 -0.0508,-0.019 -0.0127,-0.019 -0.0064,-0.0508 l 0.94615,-4.318 q 0.0127,-0.0572 0.06985,-0.0572 h 0.56515 q 0.0635,0 0.06985,0.0572 l 0.9525,4.318 v 0.0127 q 0,0.0571 -0.05715,0.0571 z m -1.20015,-1.3208 q 0,0.0254 0.01905,0.0254 h 0.84455 q 0.01905,0 0.01905,-0.0254 l -0.4318,-2.25425 q -0.0064,-0.0127 -0.0127,-0.0127 -0.0063,0 -0.0127,0.0127 z"
         style="font-style:normal;font-variant:normal;font-weight:500;font-stretch:condensed;font-size:6.3499999px;line-height:0;font-family:'Barlow Condensed';-inkscape-font-specification:'Barlow Condensed, Medium Condensed';text-align:center;text-anchor:middle;fill:#f0f0f0;fill-opacity:1;stroke-width:0.26458332"
         id="path2858" />
      <path
         d="m 78.420098,230.02315 q -0.05715,0 -0.0762,-0.0508 l -0.5842,-1.8923 q -0.0063,-0.019 -0.0254,-0.019 h -0.4445 q -0.0254,0 -0.0254,0.0254 v 1.87325 q 0,0.0635 -0.0635,0.0635 h -0.4826 q -0.0635,0 -0.0635,-0.0635 v -4.318 q 0,-0.0635 0.0635,-0.0635 h 1.13665 q 0.32385,0 0.5715,0.15875 0.24765,0.15875 0.381,0.45085 0.1397,0.28575 0.1397,0.65405 0,0.40005 -0.1651,0.6985 -0.1651,0.2921 -0.45085,0.42545 -0.01905,0.019 -0.0127,0.0381 l 0.6477,1.94945 0.0063,0.0254 q 0,0.0444 -0.05715,0.0444 z m -1.1303,-3.91795 q -0.0254,0 -0.0254,0.0254 v 1.4224 q 0,0.0254 0.0254,0.0254 h 0.4699 q 0.26035,0 0.4191,-0.19685 0.15875,-0.2032 0.15875,-0.5334 0,-0.3429 -0.15875,-0.53975 -0.15875,-0.2032 -0.4191,-0.2032 z"
         style="font-style:normal;font-variant:normal;font-weight:500;font-stretch:condensed;font-size:6.3499999px;line-height:0;font-family:'Barlow Condensed';-inkscape-font-specification:'Barlow Condensed, Medium Condensed';text-align:center;text-anchor:middle;fill:#f0f0f0;fill-opacity:1;stroke-width:0.26458332"
         id="path2860" />
      <path
         d="m 79.595641,230.02315 q -0.0635,0 -0.0635,-0.0635 v -4.318 q 0,-0.0635 0.0635,-0.0635 h 0.4826 q 0.0635,0 0.0635,0.0635 v 4.318 q 0,0.0635 -0.0635,0.0635 z"
         style="font-style:normal;font-variant:normal;font-weight:500;font-stretch:condensed;font-size:6.3499999px;line-height:0;font-family:'Barlow Condensed';-inkscape-font-specification:'Barlow Condensed, Medium Condensed';text-align:center;text-anchor:middle;fill:#f0f0f0;fill-opacity:1;stroke-width:0.26458332"
         id="path2862" />
      <path
         d="m 80.787556,230.02315 q -0.0635,0 -0.0635,-0.0635 v -0.42545 q 0,-0.0317 0.01905,-0.0762 l 1.4732,-3.32105 q 0.0063,-0.0127 0,-0.0191 -0.0063,-0.0127 -0.01905,-0.0127 h -1.4097 q -0.0635,0 -0.0635,-0.0635 v -0.40005 q 0,-0.0635 0.0635,-0.0635 h 2.02565 q 0.0635,0 0.0635,0.0635 v 0.42545 q 0,0.0254 -0.01905,0.0762 l -1.47955,3.32105 q -0.0063,0.0127 0,0.0254 0.0063,0.006 0.01905,0.006 h 1.41605 q 0.0635,0 0.0635,0.0635 v 0.40005 q 0,0.0635 -0.0635,0.0635 z"
         style="font-style:normal;font-variant:normal;font-weight:500;font-stretch:condensed;font-size:6.3499999px;line-height:0;font-family:'Barlow Condensed';-inkscape-font-specification:'Barlow Condensed, Medium Condensed';text-align:center;text-anchor:middle;fill:#f0f0f0;fill-opacity:1;stroke-width:0.26458332"
         id="path2864" />
      <path
         d="m 85.215987,230.02315 q -0.05715,0 -0.06985,-0.0571 l -0.1397,-0.73025 q 0,-0.0127 -0.0127,-0.019 -0.0063,-0.006 -0.01905,-0.006 h -1.03505 q -0.0127,0 -0.0254,0.006 -0.0063,0.006 -0.0063,0.019 l -0.13335,0.73025 q -0.0063,0.0571 -0.06985,0.0571 h -0.4826 q -0.03175,0 -0.0508,-0.019 -0.0127,-0.019 -0.0064,-0.0508 l 0.94615,-4.318 q 0.0127,-0.0572 0.06985,-0.0572 h 0.56515 q 0.0635,0 0.06985,0.0572 l 0.9525,4.318 v 0.0127 q 0,0.0571 -0.05715,0.0571 z m -1.20015,-1.3208 q 0,0.0254 0.01905,0.0254 h 0.84455 q 0.01905,0 0.01905,-0.0254 l -0.4318,-2.25425 q -0.0063,-0.0127 -0.0127,-0.0127 -0.0063,0 -0.0127,0.0127 z"
         style="font-style:normal;font-variant:normal;font-weight:500;font-stretch:condensed;font-size:6.3499999px;line-height:0;font-family:'Barlow Condensed';-inkscape-font-specification:'Barlow Condensed, Medium Condensed';text-align:center;text-anchor:middle;fill:#f0f0f0;fill-opacity:1;stroke-width:0.26458332"
         id="path2866" />
      <path
         d="m 87.997287,225.57815 q 0.0635,0 0.0635,0.0635 v 0.40005 q 0,0.0635 -0.0635,0.0635 h -0.83185 q -0.0254,0 -0.0254,0.0254 v 3.82905 q 0,0.0635 -0.0635,0.0635 h -0.4826 q -0.0635,0 -0.0635,-0.0635 v -3.82905 q 0,-0.0254 -0.0254,-0.0254 h -0.7874 q -0.0635,0 -0.0635,-0.0635 v -0.40005 q 0,-0.0635 0.0635,-0.0635 z"
         style="font-style:normal;font-variant:normal;font-weight:500;font-stretch:condensed;font-size:6.3499999px;line-height:0;font-family:'Barlow Condensed';-inkscape-font-specification:'Barlow Condensed, Medium Condensed';text-align:center;text-anchor:middle;fill:#f0f0f0;fill-opacity:1;stroke-width:0.26458332"
         id="path2868" />
      <path
         d="m 88.711364,230.02315 q -0.0635,0 -0.0635,-0.0635 v -4.318 q 0,-0.0635 0.0635,-0.0635 h 0.4826 q 0.0635,0 0.0635,0.0635 v 4.318 q 0,0.0635 -0.0635,0.0635 z"
         style="font-style:normal;font-variant:normal;font-weight:500;font-stretch:condensed;font-size:6.3499999px;line-height:0;font-family:'Barlow Condensed';-inkscape-font-specification:'Barlow Condensed, Medium Condensed';text-align:center;text-anchor:middle;fill:#f0f0f0;fill-opacity:1;stroke-width:0.26458332"
         id="path2870" />
      <path
         d="m 91.116129,230.07395 q -0.5207,0 -0.8382,-0.3175 -0.3175,-0.3175 -0.3175,-0.84455 v -2.21615 q 0,-0.52705 0.3175,-0.84455 0.3175,-0.32385 0.8382,-0.32385 0.52705,0 0.84455,0.32385 0.32385,0.3175 0.32385,0.84455 v 2.21615 q 0,0.52705 -0.32385,0.84455 -0.3175,0.3175 -0.84455,0.3175 z m 0,-0.52705 q 0.254,0 0.4064,-0.1651 0.1524,-0.17145 0.1524,-0.4445 v -2.2733 q 0,-0.27305 -0.1524,-0.43815 -0.1524,-0.17145 -0.4064,-0.17145 -0.24765,0 -0.40005,0.17145 -0.14605,0.1651 -0.14605,0.43815 v 2.2733 q 0,0.27305 0.14605,0.4445 0.1524,0.1651 0.40005,0.1651 z"
         style="font-style:normal;font-variant:normal;font-weight:500;font-stretch:condensed;font-size:6.3499999px;line-height:0;font-family:'Barlow Condensed';-inkscape-font-specification:'Barlow Condensed, Medium Condensed';text-align:center;text-anchor:middle;fill:#f0f0f0;fill-opacity:1;stroke-width:0.26458332"
         id="path2872" />
      <path
         d="m 94.779385,225.64165 q 0,-0.0635 0.0635,-0.0635 h 0.47625 q 0.0635,0 0.0635,0.0635 v 4.318 q 0,0.0635 -0.0635,0.0635 h -0.5461 q -0.0508,0 -0.06985,-0.0508 l -1.0795,-2.90195 q -0.0063,-0.0127 -0.01905,-0.006 -0.0127,0 -0.0127,0.0127 l 0.0063,2.8829 q 0,0.0635 -0.0635,0.0635 h -0.4826 q -0.0635,0 -0.0635,-0.0635 v -4.318 q 0,-0.0635 0.0635,-0.0635 h 0.53975 q 0.0508,0 0.06985,0.0508 l 1.08585,2.90195 q 0.0063,0.019 0.01905,0.019 0.0127,-0.006 0.0127,-0.0254 z"
         style="font-style:normal;font-variant:normal;font-weight:500;font-stretch:condensed;font-size:6.3499999px;line-height:0;font-family:'Barlow Condensed';-inkscape-font-specification:'Barlow Condensed, Medium Condensed';text-align:center;text-anchor:middle;fill:#f0f0f0;fill-opacity:1;stroke-width:0.26458332"
         id="path2874" />
      <path
         d="m 96.068136,230.56925 q -0.03175,0 -0.0508,-0.0254 -0.01905,-0.019 -0.0127,-0.0444 l 0.184149,-1.4097 q 0.0063,-0.0572 0.0635,-0.0572 h 0.4191 q 0.06985,0 0.05715,0.0699 l -0.3048,1.4097 q -0.0063,0.0572 -0.06985,0.0572 z"
         style="font-style:normal;font-variant:normal;font-weight:500;font-stretch:condensed;font-size:6.3499999px;line-height:0;font-family:'Barlow Condensed';-inkscape-font-specification:'Barlow Condensed, Medium Condensed';text-align:center;text-anchor:middle;fill:#f0f0f0;fill-opacity:1;stroke-width:0.26458332"
         id="path2876" />
    </g>
    <g
       aria-label="..."
       style="font-style:normal;font-variant:normal;font-weight:normal;font-stretch:normal;font-size:10.58333302px;line-height:1.25;font-family:Barlow;-inkscape-font-specification:Barlow;text-align:center;letter-spacing:0px;word-spacing:0px;text-anchor:middle;fill:#000000;fill-opacity:1;stroke:none;stroke-width:0.26458332"
       id="text821-9-6-5-5">
      <path
         d="m 78.99124,234.14972 q -0.1778,0 -0.2921,-0.1143 -0.1143,-0.1143 -0.1143,-0.2921 0,-0.1778 0.1143,-0.2921 0.1143,-0.1143 0.2921,-0.1143 0.1778,0 0.2921,0.1143 0.1143,0.1143 0.1143,0.2921 0,0.1778 -0.1143,0.2921 -0.1143,0.1143 -0.2921,0.1143 z"
         style="font-style:normal;font-variant:normal;font-weight:500;font-stretch:condensed;font-size:6.3499999px;line-height:0;font-family:'Barlow Condensed';-inkscape-font-specification:'Barlow Condensed, Medium Condensed';text-align:center;text-anchor:middle;fill:#f0f0f0;fill-opacity:1;stroke-width:0.26458332"
         id="path2843" />
      <path
         d="m 80.268682,234.14972 q -0.1778,0 -0.2921,-0.1143 -0.1143,-0.1143 -0.1143,-0.2921 0,-0.1778 0.1143,-0.2921 0.1143,-0.1143 0.2921,-0.1143 0.1778,0 0.2921,0.1143 0.1143,0.1143 0.1143,0.2921 0,0.1778 -0.1143,0.2921 -0.1143,0.1143 -0.2921,0.1143 z"
         style="font-style:normal;font-variant:normal;font-weight:500;font-stretch:condensed;font-size:6.3499999px;line-height:0;font-family:'Barlow Condensed';-inkscape-font-specification:'Barlow Condensed, Medium Condensed';text-align:center;text-anchor:middle;fill:#f0f0f0;fill-opacity:1;stroke-width:0.26458332"
         id="path2845" />
      <path
         d="m 81.546123,234.14972 q -0.1778,0 -0.2921,-0.1143 -0.1143,-0.1143 -0.1143,-0.2921 0,-0.1778 0.1143,-0.2921 0.1143,-0.1143 0.2921,-0.1143 0.1778,0 0.2921,0.1143 0.1143,0.1143 0.1143,0.2921 0,0.1778 -0.1143,0.2921 -0.1143,0.1143 -0.2921,0.1143 z"
         style="font-style:normal;font-variant:normal;font-weight:500;font-stretch:condensed;font-size:6.3499999px;line-height:0;font-family:'Barlow Condensed';-inkscape-font-specification:'Barlow Condensed, Medium Condensed';text-align:center;text-anchor:middle;fill:#f0f0f0;fill-opacity:1;stroke-width:0.26458332"
         id="path2847" />
    </g>
    <g
       id="g1107"
       transform="matrix(0.0193874,0,0,0.0193874,213.32262,215.69897)"
       style="fill:#f9f9f9;stroke-width:13.64718056">
      <path
         id="path1105"
         d="M 256,32 C 132.3,32 32,132.3 32,256 32,379.7 132.3,480 256,480 379.7,480 480,379.7 480,256 480,132.3 379.7,32 256,32 Z M 370.9,181.1 231.8,359.6 c -1.1,1.1 -2.9,3.5 -5.1,3.5 -2.3,0 -3.8,-1.6 -5.1,-2.9 -1.3,-1.3 -78.9,-75.9 -78.9,-75.9 l -1.5,-1.5 c -0.6,-0.9 -1.1,-2 -1.1,-3.2 0,-1.2 0.5,-2.3 1.1,-3.2 0.4,-0.4 0.7,-0.7 1.1,-1.2 7.7,-8.1 23.3,-24.5 24.3,-25.5 1.3,-1.3 2.4,-3 4.8,-3 2.5,0 4.1,2.1 5.3,3.3 1.2,1.2 45,43.3 45,43.3 L 333,150.3 c 1,-0.8 2.2,-1.4 3.5,-1.4 1.3,0 2.5,0.5 3.5,1.3 l 30.6,24.1 c 0.8,1 1.3,2.2 1.3,3.5 0.1,1.3 -0.4,2.4 -1,3.3 z"
         inkscape:connector-curvature="0"
         style="fill:#f9f9f9;stroke-width:13.64718056" />
    </g>
    <path
       style="fill:none;stroke:#f3f3f3;stroke-width:0.96499997;stroke-linecap:butt;stroke-linejoin:round;stroke-miterlimit:4;stroke-dasharray:none;stroke-opacity:1;marker-end:url(#TriangleOutS)"
       d="m 151.44546,220.4941 h 10.39773"
       id="path1118"
       inkscape:connector-curvature="0" />
    <path
       style="fill:none;stroke:#f3f3f3;stroke-width:0.96500003;stroke-linecap:butt;stroke-linejoin:round;stroke-miterlimit:4;stroke-dasharray:none;stroke-opacity:1;marker-end:url(#TriangleOutS-7)"
       d="m 102.49356,220.4941 h 8.51827"
       id="path1118-9"
       inkscape:connector-curvature="0" />
    <path
       style="fill:none;stroke:#f3f3f3;stroke-width:0.96500003;stroke-linecap:butt;stroke-linejoin:round;stroke-miterlimit:4;stroke-dasharray:none;stroke-opacity:1;marker-end:url(#TriangleOutS-7-5)"
       d="m 47.974874,220.4941 h 8.51827"
       id="path1118-9-3"
       inkscape:connector-curvature="0" />
    <path
       style="fill:none;stroke:#f3f3f3;stroke-width:0.96500003;stroke-linecap:butt;stroke-linejoin:round;stroke-miterlimit:4;stroke-dasharray:none;stroke-opacity:1;marker-end:url(#TriangleOutS-7-0)"
       d="m 202.46303,220.4941 h 8.51827"
       id="path1118-9-9"
       inkscape:connector-curvature="0" />
  </g>
</svg>
